<?xml version="1.0" encoding="utf-8"?>
<!-- Generator: Adobe Illustrator 16.0.2, SVG Export Plug-In . SVG Version: 6.00 Build 0)  -->
<!DOCTYPE svg PUBLIC "-//W3C//DTD SVG 1.1//EN" "http://www.w3.org/Graphics/SVG/1.1/DTD/svg11.dtd">
<svg version="1.1" id="Layer_1" xmlns="http://www.w3.org/2000/svg" xmlns:xlink="http://www.w3.org/1999/xlink" x="0px" y="0px"
	 width="2329px" height="493px" viewBox="0 0 2329 493" enable-background="new 0 0 2329 493" xml:space="preserve">
<g>
	<g>
		<path fill="#ADFF2F" d="M149.969,215.43c-29.254,0-57.014-5.289-78.166-14.893c-24.963-11.355-38.708-27.885-38.708-46.545
			c0-18.658,13.745-35.188,38.704-46.543c21.158-9.605,48.918-14.895,78.17-14.895c29.254,0,57.013,5.289,78.165,14.893
			c24.964,11.356,38.71,27.887,38.71,46.545c0,18.66-13.746,35.189-38.706,46.544C206.984,210.141,179.225,215.43,149.969,215.43z"
			/>
		<path fill="#0F172A" d="M149.969,98.555c29.072,0,55.834,5.343,75.685,14.355c19.021,8.653,35.19,22.477,35.19,41.082
			c0,18.606-16.17,32.43-35.19,41.082c-19.851,9.014-46.612,14.355-75.685,14.355c-29.071,0-55.833-5.342-75.685-14.355
			c-19.02-8.652-35.188-22.476-35.188-41.082c0-18.605,16.169-32.429,35.188-41.082C94.136,103.897,120.897,98.555,149.969,98.555
			 M149.969,86.555c-30.089,0-58.729,5.479-80.646,15.429c-27.234,12.391-42.228,30.86-42.228,52.009
			c0,21.15,14.994,39.619,42.22,52.005c21.921,9.953,50.562,15.433,80.654,15.433c30.094,0,58.734-5.479,80.646-15.429
			c27.235-12.39,42.229-30.858,42.229-52.009c0-21.149-14.994-39.618-42.221-52.005C208.7,92.034,180.06,86.555,149.969,86.555
			L149.969,86.555z"/>
	</g>
	<g>
		<path fill="#ADFF2F" d="M149.716,270.865c-29.388,0-57.278-5.292-78.458-14.9C45.967,244.473,32,227.946,32,209.43v-15.502
			c0-2.418,1.493-4.6,3.723-5.534c0.749-0.313,1.557-0.466,2.337-0.466c1.545,0,3.076,0.597,4.22,1.724
			c6.171,6.072,14.974,11.713,26.155,16.764c21.99,9.993,50.832,15.493,81.22,15.493c29.963,0,58.568-5.5,80.546-15.488
			c8.618-3.911,16.934-9.466,25.423-16.984c1.119-0.99,2.541-1.508,3.979-1.508c0.834,0,1.87,0.174,2.66,0.529
			c2.152,0.969,3.735,3.11,3.735,5.471v15.502c0,18.81-13.771,35.335-38.414,46.534
			C206.448,265.573,178.666,270.865,149.716,270.865z"/>
		<path fill="#0F172A" d="M260,194v15.43c0,18.605-15.875,32.428-34.896,41.071c-19.851,9.024-46.217,14.364-75.289,14.364
			c-29.071,0-56.177-5.358-76.029-14.364C54.766,241.857,38,228.035,38,209.43v-15.502c8,7.976,18.942,13.896,27.93,17.955
			c22.774,10.35,52.633,16.025,83.708,16.025c31.076,0,60.461-5.676,83.236-16.025c8.986-4.078,18.126-9.979,27.126-17.955
			 M38.08,181.928c-1.562,0-3.177,0.305-4.675,0.932C28.944,184.729,26,189.092,26,193.928v15.502
			c0,21.009,15.217,39.475,42.772,51.996c21.949,9.957,50.699,15.439,80.923,15.439c29.788,0,58.463-5.483,80.364-15.44
			C256.971,249.196,272,230.73,272,209.43v-15.502c0-4.722-2.967-9.004-7.272-10.942c-1.579-0.711-3.356-1.058-5.022-1.058
			c-2.877,0-5.77,1.034-8.008,3.017c-8.034,7.115-15.884,12.353-23.946,16.011c-21.22,9.644-48.956,14.953-78.081,14.953
			c-29.551,0-57.514-5.31-78.729-14.95c-10.559-4.77-18.775-10.009-24.44-15.583C44.213,183.122,41.169,181.928,38.08,181.928
			L38.08,181.928z"/>
	</g>
	<g>
		<path fill="#ADFF2F" d="M149.716,326.303c-29.432,0-57.324-5.293-78.462-14.903C45.967,299.909,32,283.383,32,264.865v-15.5
			c0-2.418,1.493-4.6,3.723-5.534c0.749-0.313,1.557-0.466,2.337-0.466c1.545,0,3.076,0.597,4.22,1.724
			c6.076,5.979,14.937,11.619,26.324,16.763c21.971,9.992,50.872,15.492,81.389,15.492c30.196,0,57.932-5.355,80.207-15.486
			c8.624-3.914,16.939-9.469,25.425-16.984c1.119-0.99,2.541-1.508,3.979-1.508c0.834,0,1.87,0.174,2.66,0.529
			c2.152,0.969,3.735,3.11,3.735,5.471v15.5c0,18.81-13.771,35.336-38.414,46.535C206.449,321.01,178.667,326.303,149.716,326.303z"
			/>
		<path fill="#0F172A" d="M260,249v15.865c0,18.606-15.875,32.429-34.896,41.072c-19.851,9.025-46.217,14.365-75.289,14.365
			c-29.071,0-56.177-5.34-76.029-14.365C54.766,297.294,38,283.472,38,264.865v-15.5c8,7.976,19.112,13.896,28.099,17.954
			c22.774,10.358,52.802,16.024,83.876,16.024c31.076,0,60.124-5.666,82.898-16.024C241.86,263.24,251,257.341,260,249.365
			 M38.08,237.365c-1.562,0-3.177,0.305-4.675,0.932C28.944,240.166,26,244.529,26,249.365v15.5
			c0,21.009,15.217,39.476,42.772,51.997c21.899,9.957,50.652,15.44,80.923,15.44c29.789,0,58.464-5.483,80.365-15.441
			c26.911-12.229,41.94-30.694,41.94-51.996v-15.5c0-4.722-2.967-9.004-7.272-10.942c-1.579-0.711-3.356-1.058-5.022-1.058
			c-2.877,0-5.77,1.034-8.008,3.017c-8.031,7.112-15.88,12.349-23.947,16.011c-21.508,9.782-48.396,14.951-77.742,14.951
			c-29.679,0-57.701-5.309-78.894-14.947c-10.77-4.864-19.043-10.103-24.613-15.584C44.213,238.56,41.169,237.365,38.08,237.365
			L38.08,237.365z"/>
	</g>
	<g>
		<path fill="#ADFF2F" d="M152.048,457.444c-11.923,0-21.623-10.799-21.623-24.072l-0.031-52.429
			c-22.143-1.814-42.95-6.765-59.099-14.106c-25.287-11.489-39.213-28.016-39.213-46.534v-15.5c0-2.418,1.451-4.6,3.682-5.534
			c0.749-0.313,1.536-0.466,2.317-0.466c1.545,0,3.064,0.597,4.209,1.723c6.172,6.073,14.971,11.714,26.15,16.764
			c21.972,9.993,50.811,15.493,81.218,15.493c29.981,0,58.585-5.5,80.543-15.487c8.619-3.912,16.935-9.468,25.424-16.984
			c1.119-0.991,2.54-1.508,3.979-1.508c0.834,0,1.673,0.174,2.462,0.529c2.153,0.969,3.537,3.11,3.537,5.471v15.5
			c0,18.823-13.558,35.35-38.174,46.535c-15.335,6.972-33.936,11.683-54.08,13.722l-0.319,28.734
			c44.943-0.061,74.623-0.369,105.966-0.695l2.219-0.023c11.175-0.112,20.814-0.225,29.809-0.33
			c19.701-0.229,36.923-0.431,60.541-0.508v-105.85c-34.199-6.785-49.526-29.331-49.526-72.388v-16.359
			c-7.788-0.288-15.308-8.804-15.308-17.477v-11.407c0-9.034,8.156-14.626,15.714-14.626h18.504v-55.525
			c0-11.883,8.751-21.551,19.507-21.551c10.757,0,19.509,9.668,19.509,21.551v55.525h27.62v-55.525
			c0-11.883,8.752-21.551,19.509-21.551c10.756,0,19.506,9.668,19.506,21.551v55.525h20.24c7.944,0,13.078,5.741,13.078,14.626
			v11.407c0,8.688-4.492,17.484-13.078,17.484h-1.328v14.002c0,44.187-16.217,68.614-49.529,74.493v130.107
			c0,13.497-9.265,24.07-21.092,24.07c-47.545,0-68.12,0.233-94.17,0.529c-5.587,0.063-11.427,0.13-17.84,0.197
			C239.239,457.021,196.393,457.444,152.048,457.444z M423.795,235.245v-13.091h-59.139v12.998L423.795,235.245z"/>
		<path fill="#0F172A" d="M427.094,98.555c7.385,0,13.506,7.007,13.506,15.551v61.525h26.24c4.69,0,7.078,3.242,7.078,8.626v11.407
			c0,5.426-2.425,11.484-7.078,11.484h-5.207h-2.121v20.002c0,40.459-13.51,65.237-49.529,69.297v2.309c0,1.194,0,2.391,0,3.629
			v48.193v81.173c0,9.998-6.49,18.07-15.092,18.07c-57.759,0-75.696,0.344-112.073,0.727c-43.282,0.469-86.528,0.896-130.77,0.896
			c-8.642,0-15.623-8.115-15.623-18.072l-0.034-58.026c-23.866-1.364-45.838-6.345-62.613-13.971
			c-19.021-8.643-35.696-22.467-35.696-41.072v-15.5c8.104,7.974,18.901,13.895,27.889,17.954
			c22.774,10.358,52.612,16.025,83.688,16.025c31.076,0,60.253-5.667,83.027-16.025c8.986-4.079,17.912-9.98,26.918-17.954v15.5
			c0,18.605-15.635,32.43-34.656,41.072c-15.765,7.167-35.359,11.999-57.537,13.688l-0.446,40.237
			c49.526-0.041,81.337-0.383,114.314-0.726c38.186-0.385,58.467-0.769,96.287-0.854v-63.143v-48.193c0-1.109,0-2.178,0-3.247
			v-2.307c-35.119-5.126-49.526-25.548-49.526-67.331v-22.352h1.091h-1.091h-5.594c-4.69,0-9.714-6.102-9.714-11.484v-11.407
			c0-5.384,5.023-8.626,9.714-8.626h24.504v-61.525c0-8.544,6.121-15.551,13.507-15.551s13.509,7.007,13.509,15.551v61.525h39.62
			v-61.525C413.585,105.562,419.706,98.555,427.094,98.555 M429.795,241.255v-25.101h-71.139v24.988L429.795,241.255
			 M427.094,86.555c-14.065,0-25.509,12.359-25.509,27.551v49.525h-15.62v-49.525c0-15.191-11.443-27.551-25.509-27.551
			c-14.064,0-25.507,12.359-25.507,27.551v49.525h-12.504c-11.973,0-21.714,9.253-21.714,20.626v11.407
			c0,5.355,2.15,10.994,5.9,15.469c2.672,3.188,5.928,5.524,9.407,6.827v11.54c0,23.825,4.545,41.646,13.895,54.479
			c8.196,11.249,19.909,18.73,35.632,22.707v43.893v51.182c-20.653,0.09-36.594,0.275-54.607,0.486
			c-8.993,0.104-18.63,0.217-29.801,0.33l-2.239,0.023c-29.892,0.311-58.265,0.605-99.82,0.685l0.193-17.36
			c18.744-2.359,36.071-7.009,50.623-13.625c26.883-12.215,41.69-30.681,41.69-51.996v-15.5c0-4.721-2.769-9.004-7.073-10.942
			c-1.579-0.711-3.258-1.058-4.925-1.058c-2.877,0-5.719,1.034-7.957,3.016c-8.035,7.114-15.86,12.352-23.923,16.012
			c-21.203,9.644-48.925,14.952-78.067,14.952c-29.568,0-57.525-5.309-78.719-14.948c-10.561-4.771-18.774-10.01-24.441-15.585
			c-2.29-2.253-5.329-3.446-8.418-3.446c-1.563,0-3.137,0.305-4.635,0.933c-4.46,1.868-7.363,6.231-7.363,11.067v15.5
			c0,21.011,15.176,39.477,42.732,51.997c15.406,7.004,34.822,11.905,55.583,14.105l0.028,46.974
			c0,16.575,12.392,30.065,27.623,30.065c44.38,0,87.243-0.425,130.899-0.897c6.409-0.067,12.25-0.134,17.836-0.197
			c26.032-0.295,46.594-0.528,94.107-0.528c15.191,0,27.092-13.208,27.092-30.07v-81.173v-44.066
			c15.779-3.825,27.942-11.998,36.24-24.383c8.942-13.345,13.289-31.328,13.289-54.979v-8.654
			c8.47-2.435,14.406-11.441,14.406-22.832v-11.407c0-12.145-7.846-20.626-19.078-20.626H452.6v-49.525
			C452.6,98.914,441.158,86.555,427.094,86.555L427.094,86.555z M370.656,228.154h47.139v1.082l-47.139-0.075V228.154
			L370.656,228.154z"/>
	</g>
</g>
<g>
	<g>
		<path fill="#ADFF2F" d="M663.835,373.658c-27.766,0-50.944-9.657-68.892-28.702c-17.854-18.944-26.906-45.001-26.906-77.445
			c0-34.217,9.091-61.307,27.021-80.516c18.038-19.328,41.992-29.128,71.195-29.128c25.579,0,46.731,7.744,62.869,23.016
			c9.706,9.127,17.05,22.258,21.812,39.014c0.447,1.573,0.232,3.261-0.594,4.672c-0.826,1.412-2.193,2.425-3.783,2.805
			l-39.388,9.409c-0.461,0.109-0.929,0.164-1.395,0.164c-1.11,0-2.208-0.308-3.167-0.903c-1.36-0.846-2.326-2.2-2.683-3.762
			c-2.04-8.939-6.123-15.759-12.483-20.846c-6.356-5.086-13.947-7.558-23.205-7.558c-12.903,0-23.051,4.468-31.023,13.659
			c-8.08,9.313-12.177,25.132-12.177,47.017c0,23.339,4.044,39.943,12.021,49.353c7.835,9.247,17.77,13.742,30.374,13.742
			c9.146,0,16.774-2.807,23.318-8.581c6.622-5.844,11.509-15.456,14.522-28.569c0.375-1.634,1.417-3.035,2.872-3.866
			c0.915-0.523,1.942-0.79,2.976-0.79c0.609,0,1.221,0.093,1.813,0.28l38.58,12.232c3.072,0.975,4.826,4.202,3.972,7.311
			c-6.245,22.71-16.898,39.906-31.665,51.112C705.062,367.979,686.226,373.658,663.835,373.658z"/>
		<path fill="#0F172A" d="M666.254,163.867c24.106,0,43.688,7.125,58.745,21.374c8.96,8.425,15.682,20.523,20.164,36.296
			l-39.388,9.409c-2.331-10.216-7.191-18.282-14.585-24.196c-7.394-5.915-16.379-8.872-26.953-8.872
			c-14.608,0-26.461,5.242-35.556,15.728c-9.097,10.485-13.645,27.47-13.645,50.948c0,24.915,4.48,42.659,13.443,53.232
			c8.96,10.575,20.611,15.862,34.951,15.862c10.573,0,19.67-3.36,27.288-10.082c7.616-6.721,13.084-17.295,16.4-31.725l38.58,12.232
			c-5.915,21.509-15.751,37.484-29.507,47.924c-13.758,10.441-31.21,15.66-52.358,15.66c-26.17,0-47.678-8.939-64.525-26.817
			c-16.85-17.879-25.272-42.321-25.272-73.33c0-32.8,8.469-58.274,25.407-76.422C616.382,172.941,638.65,163.867,666.254,163.867
			 M666.254,151.867c-30.934,0-56.362,10.441-75.582,31.034c-19.001,20.356-28.635,48.823-28.635,84.609
			c0,34.025,9.603,61.466,28.539,81.561c19.127,20.296,43.774,30.587,73.259,30.587c23.73,0,43.787-6.09,59.613-18.102
			c15.84-12.021,27.22-30.291,33.822-54.301c1.71-6.216-1.798-12.672-7.943-14.62l-38.58-12.232
			c-1.185-0.376-2.408-0.562-3.627-0.562c-2.066,0-4.12,0.534-5.951,1.58c-2.911,1.662-4.993,4.466-5.744,7.732
			c-2.728,11.866-6.981,20.417-12.645,25.414c-5.399,4.764-11.729,7.08-19.349,7.08c-10.882,0-19.079-3.692-25.796-11.619
			c-6.935-8.181-10.599-23.905-10.599-45.476c0-20.398,3.603-34.894,10.709-43.085c6.766-7.8,15.431-11.591,26.491-11.591
			c7.842,0,14.206,2.042,19.457,6.242c5.26,4.208,8.655,9.931,10.382,17.496c0.713,3.123,2.645,5.832,5.366,7.522
			c1.917,1.191,4.113,1.808,6.333,1.808c0.932,0,1.867-0.108,2.788-0.328l39.388-9.409c3.182-0.76,5.915-2.786,7.567-5.608
			c1.652-2.823,2.082-6.197,1.188-9.344c-5.063-17.815-12.965-31.864-23.487-41.758
			C715.958,160.163,693.418,151.867,666.254,151.867L666.254,151.867z"/>
	</g>
	<g>
		<path fill="#ADFF2F" d="M844.639,373.524c-13.96,0-27.455-3.196-40.112-9.501c-12.945-6.448-22.934-16.046-29.688-28.527
			c-6.635-12.26-9.999-27.264-9.999-44.596c0-13.471,3.354-26.667,9.967-39.225c6.717-12.751,16.378-22.628,28.716-29.357
			c12.174-6.641,25.918-10.008,40.849-10.008c23.164,0,42.468,7.681,57.375,22.83c14.88,15.124,22.425,34.427,22.425,57.373
			c0,23.125-7.61,42.607-22.62,57.906C886.508,365.751,867.36,373.524,844.639,373.524z M844.504,255.094
			c-8.142,0-14.813,3.038-20.393,9.288c-5.679,6.36-8.558,15.961-8.558,28.535c0,12.575,2.879,22.176,8.558,28.535
			c5.579,6.25,12.25,9.288,20.393,9.288c8.135,0,14.778-3.033,20.313-9.273c5.643-6.362,8.504-16.058,8.504-28.818
			c0-12.403-2.861-21.919-8.504-28.282C859.282,258.127,852.638,255.094,844.504,255.094z"/>
		<path fill="#0F172A" d="M844.37,218.311c21.597,0,39.297,7.013,53.099,21.038c13.8,14.026,20.701,31.747,20.701,53.165
			c0,21.599-6.969,39.501-20.903,53.704c-13.937,14.205-31.479,21.307-52.628,21.307c-13.086,0-25.564-2.958-37.438-8.872
			c-11.876-5.915-20.903-14.586-27.087-26.012c-6.184-11.427-9.275-25.34-9.275-41.74c0-12.545,3.092-24.688,9.275-36.429
			c6.184-11.739,14.942-20.702,26.28-26.886C817.73,221.402,830.39,218.311,844.37,218.311 M844.504,336.74
			c9.857,0,18.125-3.764,24.802-11.292c6.676-7.527,10.015-18.46,10.015-32.8c0-13.98-3.339-24.734-10.015-32.263
			c-6.677-7.527-14.944-11.292-24.802-11.292c-9.859,0-18.147,3.765-24.868,11.292c-6.722,7.528-10.082,18.373-10.082,32.531
			c0,14.161,3.36,25.004,10.082,32.531C826.356,332.977,834.645,336.74,844.504,336.74 M844.37,206.311
			c-15.946,0-30.656,3.613-43.722,10.74c-13.394,7.305-23.875,18.014-31.151,31.828c-7.072,13.429-10.658,27.566-10.658,42.021
			c0,18.34,3.607,34.305,10.722,47.451c7.354,13.59,18.219,24.033,32.291,31.042c13.495,6.723,27.891,10.131,42.787,10.131
			c24.394,0,44.982-8.379,61.193-24.902c16.149-16.461,24.338-37.356,24.338-62.108c0-24.576-8.124-45.295-24.147-61.581
			C889.945,214.595,869.202,206.311,844.37,206.311L844.37,206.311z M844.504,324.74c-6.423,0-11.48-2.314-15.916-7.283
			c-4.668-5.228-7.034-13.483-7.034-24.54c0-11.056,2.366-19.312,7.033-24.539c4.438-4.97,9.495-7.284,15.917-7.284
			c6.406,0,11.434,2.306,15.824,7.255c4.64,5.231,6.992,13.407,6.992,24.3c0,11.249-2.353,19.605-6.992,24.838
			C855.938,322.436,850.91,324.74,844.504,324.74L844.504,324.74z"/>
	</g>
	<g>
		<path fill="#ADFF2F" d="M1039.826,370.298c-3.313,0-6-2.687-6-6v-72.859c0-19.214-1.298-25.726-2.071-27.896
			c-1.19-3.34-3.031-5.837-5.625-7.631c-2.628-1.815-5.799-2.699-9.693-2.699c-5.346,0-9.992,1.412-14.204,4.316
			c-4.123,2.844-6.867,6.497-8.388,11.168c-1.185,3.633-2.596,11.947-2.596,30.942v64.659c0,3.313-2.687,6-6,6h-37.773
			c-3.313,0-6-2.687-6-6V221.537c0-3.313,2.687-6,6-6h35.085c3.313,0,6,2.687,6,6v5.866c11.644-10.027,25.396-15.093,41.05-15.093
			c9.12,0,17.613,1.683,25.245,5.001c7.821,3.405,13.892,7.901,18.045,13.365c4.034,5.313,6.879,11.408,8.457,18.12
			c1.51,6.429,2.243,15.188,2.243,26.779v88.722c0,3.313-2.687,6-6,6H1039.826z"/>
		<path fill="#0F172A" d="M1029.61,218.311c8.334,0,15.95,1.502,22.853,4.503c6.899,3.004,12.119,6.835,15.66,11.494
			c3.539,4.66,6.003,9.947,7.394,15.862c1.389,5.914,2.084,14.384,2.084,25.406v88.722h-37.774v-72.859
			c0-15.413-0.807-25.384-2.419-29.91c-1.613-4.524-4.235-8.042-7.864-10.552c-3.63-2.509-7.999-3.765-13.106-3.765
			c-6.543,0-12.414,1.794-17.61,5.377c-5.198,3.586-8.761,8.335-10.687,14.25c-1.929,5.914-2.891,16.85-2.891,32.8v64.659h-37.773
			V221.537h35.085v20.97C995.017,226.376,1010.7,218.311,1029.61,218.311 M1029.61,206.311c-13.396,0-25.504,3.372-36.216,10.06
			c-1.931-4.041-6.057-6.833-10.834-6.833h-35.085c-6.628,0-12,5.373-12,12v142.761c0,6.628,5.372,12,12,12h37.773
			c6.628,0,12-5.372,12-12v-64.659c0-19.167,1.44-26.446,2.3-29.079c1.114-3.425,3.05-5.995,6.092-8.093
			c3.175-2.189,6.707-3.255,10.796-3.255c2.635,0,4.69,0.535,6.284,1.636c0.969,0.671,2.378,1.892,3.384,4.711
			c0.286,0.805,1.722,5.849,1.722,25.88v72.859c0,6.628,5.373,12,12,12h37.774c6.628,0,12-5.372,12-12v-88.722
			c0-12.059-0.786-21.267-2.401-28.149c-1.772-7.538-4.975-14.393-9.52-20.377c-4.783-6.294-11.655-11.42-20.427-15.238
			C1048.856,208.16,1039.558,206.311,1029.61,206.311L1029.61,206.311z"/>
	</g>
	<g>
		<path fill="#ADFF2F" d="M1207.993,370.298c-3.313,0-6-2.687-6-6v-72.859c0-19.214-1.298-25.726-2.071-27.896
			c-1.19-3.34-3.031-5.837-5.625-7.631c-2.628-1.815-5.799-2.699-9.693-2.699c-5.346,0-9.992,1.412-14.204,4.316
			c-4.123,2.844-6.867,6.497-8.388,11.168c-1.185,3.633-2.596,11.947-2.596,30.942v64.659c0,3.313-2.687,6-6,6h-37.773
			c-3.313,0-6-2.687-6-6V221.537c0-3.313,2.687-6,6-6h35.085c3.313,0,6,2.687,6,6v5.866c11.644-10.027,25.396-15.093,41.05-15.093
			c9.12,0,17.613,1.683,25.245,5.001c7.821,3.405,13.892,7.901,18.045,13.365c4.034,5.313,6.879,11.408,8.457,18.12
			c1.51,6.429,2.243,15.188,2.243,26.779v88.722c0,3.313-2.687,6-6,6H1207.993z"/>
		<path fill="#0F172A" d="M1197.777,218.311c8.334,0,15.95,1.502,22.853,4.503c6.899,3.004,12.119,6.835,15.66,11.494
			c3.539,4.66,6.003,9.947,7.394,15.862c1.389,5.914,2.084,14.384,2.084,25.406v88.722h-37.774v-72.859
			c0-15.413-0.807-25.384-2.419-29.91c-1.613-4.524-4.235-8.042-7.864-10.552c-3.63-2.509-7.999-3.765-13.106-3.765
			c-6.543,0-12.414,1.794-17.61,5.377c-5.198,3.586-8.761,8.335-10.687,14.25c-1.929,5.914-2.891,16.85-2.891,32.8v64.659h-37.773
			V221.537h35.085v20.97C1163.184,226.376,1178.867,218.311,1197.777,218.311 M1197.777,206.311
			c-13.396,0-25.504,3.372-36.216,10.06c-1.931-4.041-6.057-6.833-10.834-6.833h-35.085c-6.627,0-12,5.373-12,12v142.761
			c0,6.628,5.373,12,12,12h37.773c6.627,0,12-5.372,12-12v-64.659c0-19.167,1.44-26.446,2.299-29.079
			c1.115-3.425,3.051-5.995,6.092-8.093c3.176-2.189,6.708-3.255,10.797-3.255c2.635,0,4.69,0.535,6.283,1.636
			c0.97,0.671,2.379,1.892,3.385,4.711c0.286,0.805,1.722,5.849,1.722,25.88v72.859c0,6.628,5.372,12,12,12h37.774
			c6.627,0,12-5.372,12-12v-88.722c0-12.059-0.785-21.267-2.401-28.149c-1.772-7.538-4.975-14.393-9.52-20.377
			c-4.784-6.294-11.655-11.42-20.427-15.238C1217.023,208.16,1207.725,206.311,1197.777,206.311L1197.777,206.311z"/>
	</g>
	<g>
		<path fill="#ADFF2F" d="M1342.286,373.524c-26.725,0-46.896-9.01-59.95-26.779c-10.147-14.011-15.28-31.748-15.28-52.752
			c0-25.105,6.777-45.177,20.143-59.655c13.493-14.616,30.761-22.027,51.323-22.027c22.945,0,41.379,7.768,54.791,23.086
			c13.233,15.12,19.658,38.174,19.094,68.521c-0.061,3.27-2.729,5.889-5.999,5.889h-88.138c0.977,6.716,3.329,12.098,7.024,16.048
			c4.682,5.008,10.372,7.441,17.396,7.441c4.554,0,8.208-1.153,11.172-3.524c3.024-2.419,5.421-6.647,7.125-12.568
			c0.749-2.604,3.129-4.342,5.761-4.342c0.33,0,0.663,0.027,0.998,0.084l37.639,6.318c1.745,0.293,3.272,1.342,4.173,2.865
			s1.082,3.367,0.496,5.037c-5.244,14.959-13.713,26.558-25.17,34.475C1373.47,369.525,1359.138,373.524,1342.286,373.524z
			 M1362.409,274.685c-0.912-6.351-3.034-11.319-6.337-14.816c-4.233-4.479-9.227-6.656-15.265-6.656
			c-6.518,0-11.739,2.293-15.964,7.01c-3.342,3.731-5.353,8.496-6.086,14.463H1362.409z"/>
		<path fill="#0F172A" d="M1338.521,218.311c21.24,0,37.997,7.013,50.276,21.038c12.276,14.026,18.147,35.512,17.609,64.457h-94.637
			c0.27,11.204,3.315,19.918,9.142,26.146c5.824,6.229,13.083,9.343,21.777,9.343c5.914,0,10.889-1.613,14.921-4.84
			c4.033-3.227,7.078-8.423,9.142-15.594l37.639,6.318c-4.839,13.802-12.48,24.311-22.919,31.523
			c-10.441,7.215-23.504,10.821-39.186,10.821c-24.825,0-43.197-8.11-55.115-24.332c-9.41-12.993-14.115-29.393-14.115-49.199
			c0-23.659,6.184-42.188,18.552-55.586C1303.975,225.011,1319.612,218.311,1338.521,218.311 M1312.443,280.685h56.459
			c-0.269-10.933-3.092-19.244-8.469-24.937c-5.377-5.689-11.92-8.536-19.626-8.536c-8.247,0-15.057,3.004-20.434,9.007
			C1314.997,262.224,1312.353,270.38,1312.443,280.685 M1338.521,206.311c-22.306,0-41.057,8.061-55.731,23.957
			c-14.422,15.623-21.734,37.063-21.734,63.726c0,22.294,5.517,41.216,16.396,56.238c0.016,0.021,0.032,0.044,0.048,0.065
			c14.249,19.395,36.046,29.228,64.786,29.228c18.094,0,33.572-4.356,46.007-12.949c12.523-8.652,21.749-21.244,27.422-37.425
			c1.171-3.341,0.808-7.027-0.992-10.074c-0.992-1.679-2.364-3.069-3.98-4.078c4.414-1.71,7.57-5.957,7.663-10.97
			c0.593-31.885-6.331-56.306-20.577-72.583C1383.226,214.767,1363.272,206.311,1338.521,206.311L1338.521,206.311z
			 M1326.473,268.685c0.74-1.688,1.687-3.171,2.841-4.461c3.104-3.466,6.649-5.012,11.494-5.012c4.418,0,7.781,1.474,10.904,4.778
			c1.192,1.263,2.183,2.83,2.968,4.694H1326.473L1326.473,268.685z M1325.958,315.806h29.186c-1.671,5.673-3.651,8.177-5.029,9.279
			c-1.187,0.949-3.246,2.21-7.425,2.21c-5.345,0-9.479-1.76-13.012-5.538C1328.131,320.104,1326.894,318.127,1325.958,315.806
			L1325.958,315.806z"/>
	</g>
	<g>
		<path fill="#ADFF2F" d="M1497.415,373.524c-22.503,0-40.774-7.283-54.308-21.646c-13.437-14.26-20.25-34.053-20.25-58.826
			c0-25.047,6.841-44.958,20.332-59.178c13.576-14.309,32.047-21.563,54.897-21.563c18.598,0,33.74,4.164,45.005,12.376
			c11.309,8.248,19.496,20.823,24.338,37.376c0.478,1.634,0.239,3.393-0.655,4.84c-0.896,1.448-2.363,2.447-4.038,2.749
			l-37.236,6.721c-0.354,0.064-0.711,0.096-1.065,0.096c-1.226,0-2.433-0.376-3.449-1.091c-1.312-0.922-2.2-2.329-2.467-3.91
			c-1.022-6.056-3.149-10.382-6.502-13.227c-3.348-2.841-7.729-4.222-13.393-4.222c-7.647,0-13.525,2.507-17.971,7.663
			c-4.61,5.348-6.947,14.997-6.947,28.682c0,15.444,2.419,26.245,7.188,32.103c4.532,5.568,10.508,8.274,18.268,8.274
			c5.698,0,10.152-1.502,13.615-4.593c3.539-3.157,6.156-9.104,7.778-17.678c0.544-2.874,3.058-4.885,5.889-4.885
			c0.335,0,0.674,0.028,1.014,0.086l37.102,6.318c1.624,0.276,3.063,1.209,3.979,2.578s1.229,3.055,0.865,4.661
			c-4.146,18.315-12.32,32.431-24.299,41.952C1533.136,368.698,1517.091,373.524,1497.415,373.524z"/>
		<path fill="#0F172A" d="M1498.087,218.311c17.385,0,31.208,3.743,41.471,11.225c10.26,7.483,17.631,18.887,22.113,34.212
			l-37.236,6.721c-1.256-7.438-4.101-13.039-8.536-16.803c-4.437-3.765-10.195-5.646-17.274-5.646
			c-9.409,0-16.916,3.25-22.516,9.746c-5.603,6.499-8.402,17.364-8.402,32.599c0,16.938,2.844,28.901,8.536,35.892
			c5.69,6.99,13.329,10.485,22.92,10.485c7.169,0,13.039-2.037,17.61-6.116c4.57-4.077,7.796-11.09,9.679-21.038l37.102,6.318
			c-3.854,17.028-11.248,29.889-22.181,38.58c-10.935,8.694-25.587,13.04-43.957,13.04c-20.883,0-37.528-6.587-49.94-19.761
			c-12.413-13.174-18.617-31.41-18.617-54.712c0-23.568,6.228-41.918,18.685-55.048
			C1459.998,224.876,1476.848,218.311,1498.087,218.311 M1498.087,206.311c-24.562,0-44.496,7.885-59.25,23.434
			c-14.585,15.373-21.979,36.672-21.979,63.308c0,26.354,7.362,47.53,21.884,62.941c14.711,15.614,34.452,23.531,58.674,23.531
			c21.065,0,38.367-5.265,51.426-15.647c13.073-10.393,21.961-25.643,26.416-45.323c0.728-3.214,0.102-6.585-1.731-9.323
			c-1.832-2.738-4.71-4.603-7.958-5.156l-37.102-6.318c-0.681-0.115-1.359-0.172-2.028-0.172c-5.663,0-10.689,4.021-11.777,9.771
			c-1.797,9.497-4.453,13.045-5.876,14.315c-1.479,1.318-4.082,3.07-9.622,3.07c-6.003,0-10.201-1.869-13.613-6.062
			c-2.184-2.68-5.843-9.921-5.843-28.315c0-16.004,3.44-22.385,5.491-24.764c3.282-3.808,7.549-5.581,13.427-5.581
			c4.182,0,7.293,0.915,9.511,2.796c2.197,1.865,3.701,5.112,4.467,9.651c0.534,3.161,2.311,5.978,4.935,7.82
			c2.034,1.43,4.446,2.182,6.898,2.182c0.71,0,1.423-0.063,2.132-0.19l37.236-6.721c3.349-0.604,6.284-2.604,8.074-5.498
			s2.267-6.414,1.312-9.68c-5.222-17.854-14.158-31.493-26.56-40.539C1534.313,210.862,1517.982,206.311,1498.087,206.311
			L1498.087,206.311z"/>
	</g>
	<g>
		<path fill="#ADFF2F" d="M1629.019,373.524c-7.579,0-14.555-1.31-20.73-3.893c-6.502-2.718-11.422-6.404-14.624-10.956
			c-3.063-4.351-5.188-10.124-6.317-17.159c-0.872-4.811-1.296-13.851-1.296-27.629v-56.239h-11.341c-3.313,0-6-2.687-6-6v-30.111
			c0-3.313,2.687-6,6-6h11.341v-22.364c0-2.137,1.137-4.112,2.983-5.187l37.909-22.046c0.933-0.542,1.975-0.813,3.017-0.813
			c1.033,0,2.065,0.267,2.992,0.799c1.86,1.071,3.008,3.054,3.008,5.201v44.41h19.81c3.313,0,6,2.687,6,6v30.111
			c0,3.313-2.687,6-6,6h-19.81v51.534c0,15.157,0.429,18.309,0.561,18.913c0.095,0.371,0.292,0.814,1.038,1.351
			c0.71,0.51,1.652,0.757,2.887,0.757c1.907,0,5.733-0.566,13.133-3.267c0.667-0.243,1.363-0.363,2.057-0.363
			c1.104,0,2.203,0.306,3.165,0.902c1.565,0.973,2.598,2.609,2.799,4.441l3.227,29.305c0.289,2.625-1.173,5.131-3.601,6.171
			C1651.731,371.462,1640.896,373.524,1629.019,373.524z"/>
		<path fill="#0F172A" d="M1629.96,171.127v50.41h25.81v30.111h-25.81v57.534c0,11.651,0.245,18.439,0.739,20.366
			c0.491,1.928,1.613,3.518,3.36,4.771c1.748,1.257,3.875,1.883,6.386,1.883c3.495,0,8.557-1.21,15.189-3.63l3.227,29.305
			c-8.784,3.765-18.731,5.646-29.843,5.646c-6.812,0-12.951-1.143-18.416-3.428c-5.468-2.286-9.478-5.243-12.031-8.873
			c-2.555-3.629-4.325-8.536-5.311-14.72c-0.807-4.39-1.21-13.262-1.21-26.616v-62.239h-17.341v-30.111h17.341v-28.364
			L1629.96,171.127 M1629.96,159.127c-2.085,0-4.168,0.542-6.032,1.627l-37.909,22.046c-3.694,2.148-5.968,6.1-5.968,10.373v16.364
			h-5.341c-6.628,0-12,5.373-12,12v30.111c0,6.627,5.372,12,12,12h5.341v50.239c0,18.66,0.78,25.304,1.381,28.64
			c1.277,7.917,3.742,14.512,7.327,19.604c3.861,5.488,9.653,9.876,17.215,13.037c6.913,2.891,14.667,4.356,23.045,4.356
			c12.694,0,24.325-2.227,34.569-6.616c4.855-2.081,7.779-7.093,7.201-12.344l-3.227-29.305c-0.403-3.663-2.467-6.938-5.598-8.881
			c-1.924-1.195-4.12-1.806-6.331-1.806c-1.386,0-2.777,0.24-4.112,0.727c-4.734,1.728-7.65,2.434-9.327,2.718
			c-0.117-2.509-0.234-6.978-0.234-14.835v-45.534h13.81c6.627,0,12-5.373,12-12v-30.111c0-6.627-5.373-12-12-12h-13.81v-38.41
			c0-4.294-2.294-8.261-6.017-10.401C1634.092,159.66,1632.025,159.127,1629.96,159.127L1629.96,159.127z"/>
	</g>
	<g>
		<path fill="#ADFF2F" d="M1747.045,373.524c-13.96,0-27.455-3.196-40.112-9.501c-12.945-6.448-22.934-16.046-29.688-28.527
			c-6.635-12.26-9.999-27.264-9.999-44.596c0-13.471,3.354-26.667,9.967-39.225c6.717-12.751,16.378-22.628,28.716-29.357
			c12.174-6.641,25.918-10.008,40.849-10.008c23.164,0,42.468,7.681,57.375,22.83c14.88,15.124,22.425,34.427,22.425,57.373
			c0,23.125-7.61,42.607-22.62,57.906C1788.914,365.751,1769.767,373.524,1747.045,373.524z M1746.91,255.094
			c-8.142,0-14.813,3.038-20.393,9.288c-5.679,6.36-8.558,15.961-8.558,28.535c0,12.575,2.879,22.176,8.558,28.535
			c5.579,6.25,12.25,9.288,20.393,9.288c8.135,0,14.778-3.033,20.313-9.273c5.643-6.362,8.504-16.058,8.504-28.818
			c0-12.403-2.861-21.919-8.504-28.282C1761.688,258.127,1755.044,255.094,1746.91,255.094z"/>
		<path fill="#0F172A" d="M1746.776,218.311c21.597,0,39.297,7.013,53.099,21.038c13.8,14.026,20.701,31.747,20.701,53.165
			c0,21.599-6.969,39.501-20.903,53.704c-13.937,14.205-31.479,21.307-52.628,21.307c-13.086,0-25.564-2.958-37.438-8.872
			c-11.876-5.915-20.903-14.586-27.087-26.012c-6.184-11.427-9.275-25.34-9.275-41.74c0-12.545,3.092-24.688,9.275-36.429
			c6.184-11.739,14.942-20.702,26.28-26.886C1720.137,221.402,1732.796,218.311,1746.776,218.311 M1746.91,336.74
			c9.857,0,18.125-3.764,24.802-11.292c6.676-7.527,10.015-18.46,10.015-32.8c0-13.98-3.339-24.734-10.015-32.263
			c-6.677-7.527-14.944-11.292-24.802-11.292c-9.859,0-18.147,3.765-24.868,11.292c-6.722,7.528-10.082,18.373-10.082,32.531
			c0,14.161,3.36,25.004,10.082,32.531C1728.763,332.977,1737.051,336.74,1746.91,336.74 M1746.776,206.311
			c-15.946,0-30.656,3.613-43.722,10.74c-13.394,7.305-23.875,18.014-31.151,31.828c-7.072,13.429-10.658,27.566-10.658,42.021
			c0,18.34,3.607,34.305,10.722,47.451c7.354,13.59,18.219,24.033,32.291,31.042c13.495,6.723,27.891,10.131,42.787,10.131
			c24.394,0,44.982-8.379,61.193-24.902c16.149-16.461,24.338-37.356,24.338-62.108c0-24.576-8.124-45.295-24.147-61.581
			C1792.352,214.595,1771.608,206.311,1746.776,206.311L1746.776,206.311z M1746.91,324.74c-6.423,0-11.48-2.314-15.916-7.283
			c-4.668-5.228-7.034-13.483-7.034-24.54c0-11.056,2.366-19.312,7.033-24.539c4.438-4.97,9.495-7.284,15.917-7.284
			c6.406,0,11.434,2.306,15.824,7.255c4.64,5.231,6.992,13.407,6.992,24.3c0,11.249-2.353,19.605-6.992,24.838
			C1758.345,322.436,1753.316,324.74,1746.91,324.74L1746.91,324.74z"/>
	</g>
	<g>
		<path fill="#ADFF2F" d="M1848.537,370.298c-3.313,0-6-2.687-6-6V221.537c0-3.313,2.687-6,6-6h35.086c3.313,0,6,2.687,6,6v2.229
			c2.391-2.532,4.709-4.507,6.98-5.949c5.749-3.654,12.327-5.507,19.551-5.507c9.657,0,19.057,2.681,27.938,7.969
			c2.461,1.465,3.543,4.464,2.585,7.163l-11.694,32.935c-0.614,1.729-1.986,3.083-3.724,3.673c-0.629,0.214-1.281,0.319-1.931,0.319
			c-1.144,0-2.277-0.327-3.261-0.963c-5.351-3.464-10.224-5.221-14.484-5.221c-3.93,0-7.107,1.005-9.716,3.071
			c-1.814,1.438-4.435,4.808-6.614,12.691c-1.342,4.854-2.941,16.817-2.941,46.258v44.092c0,3.313-2.687,6-6,6H1848.537z"/>
		<path fill="#0F172A" d="M1916.154,218.311c8.603,0,16.892,2.375,24.868,7.124l-11.694,32.935
			c-6.364-4.12-12.279-6.184-17.745-6.184c-5.288,0-9.769,1.458-13.442,4.369c-3.676,2.913-6.565,8.179-8.671,15.795
			c-2.106,7.618-3.158,23.571-3.158,47.856v44.092h-37.774V221.537h35.086v20.298c6.003-9.588,11.402-15.906,16.198-18.954
			C1904.614,219.835,1910.059,218.311,1916.154,218.311 M1916.154,206.311c-8.382,0-16.043,2.168-22.77,6.442
			c-0.318,0.202-0.637,0.413-0.956,0.632c-2.191-2.366-5.325-3.848-8.806-3.848h-35.086c-6.627,0-12,5.373-12,12v142.761
			c0,6.628,5.373,12,12,12h37.774c6.628,0,12-5.372,12-12v-44.092c0-30.284,1.707-40.979,2.724-44.658
			c2.014-7.284,4.15-9.265,4.559-9.589c0.961-0.761,2.627-1.773,5.989-1.773c3.041,0,6.922,1.472,11.224,4.257
			c1.966,1.272,4.234,1.927,6.522,1.927c1.298,0,2.602-0.211,3.859-0.638c3.476-1.181,6.22-3.888,7.448-7.347l11.694-32.935
			c1.916-5.397-0.249-11.396-5.17-14.326C1937.339,209.275,1926.906,206.311,1916.154,206.311L1916.154,206.311z"/>
	</g>
	<g>
		<path fill="#ADFF2F" d="M2002.993,373.658c-21.05,0-37.609-6.113-49.221-18.171c-11.544-11.988-17.446-29.503-17.54-52.06
			c-0.013-3.059,2.277-5.638,5.316-5.986l37.505-4.302c0.229-0.026,0.456-0.039,0.684-0.039c1.425,0,2.812,0.508,3.904,1.444
			c1.268,1.086,2.025,2.65,2.091,4.318c0.503,12.704,2.501,18.443,4.088,21.02c3.225,5.308,7.832,7.766,14.518,7.766
			c6.896,0,11.463-1.675,13.964-5.119c1.631-2.247,4.367-8.874,4.367-27.999V167.229c0-3.313,2.687-6,6-6h39.655
			c3.313,0,6,2.687,6,6v124.748c0,17.104-1.504,30.024-4.598,39.502c-4.276,12.729-12.104,23.046-23.28,30.71
			C2035.349,369.799,2020.729,373.658,2002.993,373.658z"/>
		<path fill="#0F172A" d="M2068.324,167.229v124.748c0,16.312-1.435,28.857-4.302,37.64c-3.854,11.472-10.844,20.681-20.97,27.624
			c-10.129,6.946-23.481,10.418-40.06,10.418c-19.448,0-34.413-5.444-44.898-16.333c-10.485-10.888-15.774-26.861-15.862-47.923
			l37.505-4.302c0.447,11.292,2.104,19.27,4.974,23.929c4.302,7.08,10.843,10.619,19.627,10.619c8.872,0,15.144-2.531,18.819-7.595
			c3.674-5.063,5.512-15.57,5.512-31.523V167.229H2068.324 M2068.324,155.229h-39.655c-6.628,0-12,5.373-12,12V294.53
			c0,19.806-3.093,24.294-3.224,24.476c-1.586,2.184-5.828,2.643-9.107,2.643c-5.332,0-7.603-1.939-9.371-4.851
			c-0.013-0.021-0.025-0.04-0.038-0.061c-0.622-1.012-2.693-5.306-3.2-18.111c-0.133-3.336-1.648-6.466-4.183-8.638
			c-2.186-1.873-4.96-2.888-7.808-2.888c-0.455,0-0.912,0.025-1.368,0.078l-37.505,4.302c-6.078,0.697-10.658,5.854-10.633,11.972
			c0.101,24.152,6.566,43.06,19.219,56.197c12.785,13.276,30.799,20.009,53.542,20.009c18.97,0,34.731-4.213,46.847-12.521
			c12.274-8.417,20.874-19.755,25.558-33.699c0.011-0.032,0.022-0.064,0.032-0.097c3.293-10.088,4.895-23.618,4.895-41.364V167.229
			C2080.324,160.602,2074.951,155.229,2068.324,155.229L2068.324,155.229z"/>
	</g>
	<g>
		<path fill="#ADFF2F" d="M2181.915,373.793c-26.279,0-46.91-6.302-61.318-18.73c-14.463-12.47-23.2-30.7-25.969-54.184
			c-0.188-1.602,0.275-3.211,1.287-4.467s2.486-2.051,4.091-2.207l38.715-3.765c0.197-0.02,0.393-0.028,0.587-0.028
			c2.873,0,5.383,2.058,5.9,4.941c2.068,11.535,6.165,19.991,12.176,25.131c5.973,5.111,14.362,7.702,24.935,7.702
			c11.313,0,19.766-2.268,25.126-6.739c5.106-4.263,7.589-8.978,7.589-14.415c0-3.237-0.885-5.871-2.705-8.051
			c-1.391-1.663-4.555-4.183-11.72-6.728c-4.419-1.53-14.966-4.373-31.299-8.436c-22.5-5.577-38.024-12.396-47.454-20.846
			c-13.366-11.978-20.144-26.823-20.144-44.124c0-11.175,3.199-21.752,9.509-31.438c6.323-9.71,15.499-17.181,27.272-22.205
			c11.407-4.869,25.248-7.338,41.137-7.338c26.103,0,46.217,5.966,59.785,17.732c13.753,11.931,21.074,27.994,21.759,47.745
			c0.114,3.29-2.443,6.058-5.732,6.202l-39.79,1.748c-0.09,0.004-0.179,0.006-0.267,0.006c-2.915,0-5.426-2.105-5.914-5.005
			c-1.441-8.568-4.39-14.671-8.765-18.137c-4.489-3.555-11.716-5.357-21.479-5.357c-10.214,0-18.164,2.012-23.629,5.98
			c-2.66,1.924-3.843,4.197-3.843,7.377c0,2.865,1.199,5.208,3.774,7.371c2.399,2.015,10.022,6.246,34.083,11.928
			c20.036,4.731,34.549,9.543,44.365,14.713c10.193,5.368,18.296,12.831,24.084,22.18c5.814,9.394,8.763,21.017,8.763,34.547
			c0,12.396-3.481,24.153-10.348,34.945c-6.916,10.867-16.796,19.041-29.365,24.295
			C2214.952,371.218,2199.746,373.793,2181.915,373.793z"/>
		<path fill="#0F172A" d="M2179.63,163.867c24.734,0,43.353,5.424,55.854,16.266c12.502,10.845,19.065,25.319,19.693,43.42
			l-39.79,1.748c-1.703-10.126-5.356-17.408-10.956-21.845c-5.602-4.436-14.003-6.654-25.205-6.654
			c-11.561,0-20.613,2.376-27.154,7.125c-4.213,3.048-6.317,7.125-6.317,12.232c0,4.661,1.97,8.65,5.914,11.965
			c5.019,4.213,17.207,8.603,36.564,13.174c19.357,4.57,33.674,9.298,42.949,14.182c9.275,4.886,16.534,11.561,21.777,20.029
			c5.242,8.469,7.864,18.934,7.864,31.389c0,11.292-3.139,21.867-9.41,31.725c-6.274,9.859-15.146,17.186-26.616,21.979
			c-11.473,4.793-25.767,7.191-42.883,7.191c-24.915,0-44.048-5.757-57.399-17.273c-13.354-11.515-21.33-28.297-23.929-50.343
			l38.715-3.765c2.33,12.995,7.058,22.54,14.183,28.633c7.124,6.096,16.736,9.142,28.834,9.142c12.815,0,22.471-2.71,28.97-8.133
			c6.496-5.422,9.745-11.763,9.745-19.021c0-4.659-1.367-8.624-4.1-11.896c-2.734-3.271-7.507-6.117-14.316-8.536
			c-4.661-1.613-15.28-4.48-31.859-8.604c-21.329-5.287-36.295-11.783-44.898-19.492c-12.099-10.842-18.147-24.063-18.147-39.655
			c0-10.036,2.844-19.425,8.536-28.163c5.689-8.737,13.89-15.392,24.6-19.962C2151.556,166.153,2164.484,163.867,2179.63,163.867
			 M2179.63,151.867c-16.703,0-31.336,2.631-43.493,7.819c-12.886,5.499-22.961,13.726-29.944,24.451
			c-6.954,10.675-10.48,22.354-10.48,34.711c0,19.079,7.448,35.428,22.14,48.592c10.178,9.12,26.539,16.383,50.02,22.203
			c20.026,4.98,27.795,7.252,30.779,8.281c6.571,2.341,8.608,4.348,9.077,4.908c0.644,0.771,1.306,1.877,1.306,4.199
			c0,2.455-0.617,5.788-5.435,9.809c-4.19,3.497-11.55,5.346-21.28,5.346c-9.23,0-16.109-2.048-21.032-6.26
			c-4.934-4.219-8.355-11.496-10.173-21.633c-1.034-5.766-6.053-9.883-11.801-9.883c-0.388,0-0.778,0.019-1.172,0.058l-38.715,3.765
			c-3.21,0.312-6.159,1.903-8.183,4.414s-2.951,5.731-2.573,8.935c2.949,25.021,12.373,44.543,28.01,58.025
			c15.527,13.394,37.477,20.186,65.235,20.186c18.629,0,34.613-2.731,47.509-8.119c13.724-5.735,24.527-14.688,32.114-26.609
			c7.489-11.771,11.286-24.612,11.286-38.167c0-14.663-3.25-27.349-9.661-37.704c-6.358-10.271-15.237-18.457-26.388-24.331
			c-5.029-2.647-11.187-5.195-18.57-7.674l37.499-1.647c6.578-0.289,11.694-5.824,11.466-12.404
			c-0.744-21.484-8.76-39.003-23.822-52.068C2228.655,158.327,2207.218,151.867,2179.63,151.867L2179.63,151.867z M2206.807,233.689
			c-4.857-1.372-10.123-2.727-15.816-4.07c-24.999-5.904-30.714-9.938-31.605-10.686c-1.63-1.37-1.63-2.148-1.63-2.774
			c0-1.169,0.187-1.667,1.352-2.51c4.436-3.221,11.199-4.848,20.12-4.848c10.436,0,15.415,2.209,17.756,4.062
			c3.172,2.514,5.385,7.369,6.571,14.428C2203.974,229.788,2205.145,231.99,2206.807,233.689L2206.807,233.689z"/>
	</g>
</g>
</svg>
