<?xml version="1.0" encoding="utf-8"?>
<!-- Generator: Adobe Illustrator 16.0.2, SVG Export Plug-In . SVG Version: 6.00 Build 0)  -->
<!DOCTYPE svg PUBLIC "-//W3C//DTD SVG 1.1 Basic//EN" "http://www.w3.org/Graphics/SVG/1.1/DTD/svg11-basic.dtd">
<svg version="1.1" baseProfile="basic" id="Layer_1"
	 xmlns="http://www.w3.org/2000/svg" xmlns:xlink="http://www.w3.org/1999/xlink" x="0px" y="0px" width="690.719px"
	 height="220.702px" viewBox="147.783 67.875 690.719 220.702" xml:space="preserve">
<rect x="147.783" y="67.875" style="display:none;fill:#151115;" width="690.719" height="220.703"/>
<rect x="147.784" y="67.875" style="display:none;fill:#0D0933;" width="148.379" height="47.411"/>
<g>
	<path style="fill:#283A28;" d="M819.994,212.058v3.826c-0.643-0.418-1.281-0.835-2.021-1.056
		C818.506,213.771,819.145,212.725,819.994,212.058 M819.994,211.058c-0.22,0-0.438,0.072-0.617,0.214
		c-1.07,0.84-1.79,2.102-2.297,3.106c-0.134,0.264-0.143,0.574-0.025,0.846c0.117,0.272,0.349,0.479,0.632,0.563
		c0.598,0.179,1.158,0.543,1.751,0.929c0.167,0.108,0.36,0.164,0.554,0.164c0.163,0,0.326-0.04,0.474-0.12
		c0.322-0.175,0.529-0.508,0.529-0.875v-3.826c0-0.383-0.219-0.731-0.563-0.899C820.293,211.091,820.143,211.058,819.994,211.058
		L819.994,211.058z"/>
	<path style="fill:#283A28;" d="M730.189,128.104l6.678,63.409h-25.33c0-16.439-17.184-4.763-26.305-17.918
		c-6.996-9.92,3.389-26.08-15.063-26.08v31.366h-0.205c-5.287,0-10.391,0.652-15.475,2.03l5.521-52.808h62.553v5.512
		c-3.395,0-6.15,2.751-6.15,6.146v22.488c0,3.385,2.756,6.141,6.15,6.141c3.391,0,6.141-2.756,6.141-6.141v-22.488
		c0-2.117-1.061-4.023-2.756-5.186v-6.472H730.189 M730.189,127.104h-4.24c-0.553,0-1,0.447-1,1v6.472
		c0,0.33,0.162,0.639,0.435,0.825c1.453,0.996,2.321,2.626,2.321,4.36v22.488c0,2.835-2.306,5.141-5.141,5.141
		c-2.84,0-5.15-2.306-5.15-5.141v-22.488c0-2.837,2.311-5.146,5.15-5.146c0.553,0,1-0.447,1-1v-5.512c0-0.553-0.447-1-1-1h-62.553
		c-0.512,0-0.941,0.387-0.994,0.896l-5.521,52.808c-0.035,0.327,0.095,0.651,0.346,0.865c0.184,0.155,0.414,0.238,0.648,0.238
		c0.088,0,0.176-0.012,0.262-0.035c4.954-1.343,9.931-1.995,15.213-1.995h0.205c0.553,0,1-0.447,1-1v-30.35
		c9.6,0.327,9.807,5.479,10.089,12.52c0.173,4.297,0.368,9.167,3.156,13.12c4.441,6.406,10.811,7.268,15.929,7.959
		c6.139,0.83,10.193,1.378,10.193,9.383c0,0.553,0.447,1,1,1h25.33c0.283,0,0.554-0.12,0.743-0.331s0.281-0.492,0.251-0.773
		L731.184,128C731.131,127.491,730.701,127.104,730.189,127.104L730.189,127.104z"/>
	<path style="fill:#283A28;" d="M803.502,234.763c0.124,0,0.25,0.001,0.375,0.004c9.219,0.192,16.541,7.639,16.43,16.948
		c0,9.137-7.428,16.746-16.65,16.746s-16.742-7.609-16.742-16.746c0-0.197,0-0.403,0-0.609
		C787.02,242.098,794.447,234.763,803.502,234.763 M804.018,258.091c3.619,0,6.672-2.967,6.672-6.592
		c0-3.793-3.053-6.765-6.672-6.765c-3.713,0-6.684,2.972-6.684,6.765C797.334,255.124,800.305,258.091,804.018,258.091
		 M803.502,233.763c-9.586,0-17.476,7.774-17.588,17.331v0.621c0,9.785,7.959,17.746,17.742,17.746
		c9.732,0,17.65-7.961,17.65-17.746c0.118-9.853-7.529-17.742-17.409-17.948C803.767,233.764,803.634,233.763,803.502,233.763
		L803.502,233.763z M804.018,257.091c-3.134,0-5.684-2.509-5.684-5.592c0-3.232,2.496-5.765,5.684-5.765
		c3.127,0,5.672,2.586,5.672,5.765C809.689,254.53,807.092,257.091,804.018,257.091L804.018,257.091z"/>
	<path style="fill:#283A28;" d="M670.17,215.024c12.742,0,23.33,10.409,23.33,23.334c0,12.934-10.588,23.333-23.33,23.333
		c-12.717-0.201-23.098-10.385-23.107-23.103C646.852,225.654,657.24,215.049,670.17,215.024 M670.123,248.123
		c5.516,0,9.971-4.45,9.971-9.977c0-5.512-4.455-9.972-9.971-9.972c-5.699,0-10.154,4.46-10.154,9.972
		C659.969,243.673,664.424,248.123,670.123,248.123 M670.17,214.024c-0.001,0-0.001,0-0.002,0
		c-6.515,0.013-12.615,2.578-17.179,7.226c-4.573,4.657-7.033,10.821-6.927,17.355c0.01,13.063,10.817,23.876,24.092,24.086
		c13.432,0,24.346-10.916,24.346-24.333C694.5,224.94,683.586,214.024,670.17,214.024L670.17,214.024z M670.123,247.123
		c-5.133,0-9.154-3.943-9.154-8.977c0-5.031,4.021-8.972,9.154-8.972c4.946,0,8.971,4.024,8.971,8.972
		C679.094,243.096,675.069,247.123,670.123,247.123L670.123,247.123z"/>
	<path style="fill:#283A28;" d="M819.984,203.176v0.835c-3.811,1.704-6.783,4.883-8.377,8.699c-2.565-0.581-5.173-0.866-7.791-0.866
		c-5.926,0-11.913,1.461-17.641,4.261c-11.773,5.737-19.406,16.732-20.996,29.484h-52.375c0.422-2.339,0.639-4.687,0.639-7.23
		c0-4.23-0.635-8.46-1.705-12.488H732.1l15.586-22.694H819.984 M819.984,202.176h-72.299c-0.329,0-0.638,0.162-0.824,0.434
		l-15.288,22.261h-19.835c-0.311,0-0.604,0.145-0.793,0.391s-0.253,0.566-0.174,0.866c1.109,4.175,1.672,8.29,1.672,12.231
		c0,2.423-0.204,4.729-0.623,7.053c-0.053,0.292,0.027,0.592,0.217,0.819c0.19,0.227,0.472,0.358,0.768,0.358h52.375
		c0.505,0,0.93-0.376,0.992-0.876c1.559-12.499,9.2-23.231,20.442-28.709c5.646-2.761,11.434-4.16,17.202-4.16
		c2.558,0,5.104,0.283,7.57,0.842c0.074,0.017,0.148,0.024,0.221,0.024c0.396,0,0.765-0.236,0.923-0.614
		c1.52-3.639,4.385-6.617,7.862-8.172c0.36-0.161,0.592-0.519,0.592-0.913v-0.835C820.984,202.623,820.537,202.176,819.984,202.176
		L819.984,202.176z"/>
	<path style="fill:#283A28;" d="M737.92,113.37c0.115,0,0.23,0.005,0.432,0.005c0,0.206,0.096,0.499,0.096,0.922v7.129
		c0,0.265-0.096,0.528-0.096,0.851c-0.201,0-0.316,0-0.432,0h-86.195c-0.207,0-0.412,0-0.428,0
		c-0.182-0.207-0.197-0.428-0.197-0.851v-7.129c0-0.423,0.016-0.716,0.197-0.922c0.016,0,0.221-0.005,0.428-0.005H737.92
		 M737.92,112.37h-86.195c-0.17,0-0.339,0.003-0.412,0.005c-0.28,0.005-0.58,0.128-0.766,0.339
		c-0.447,0.507-0.447,1.129-0.447,1.583v7.129c0,0.446,0,1.002,0.445,1.51c0.19,0.217,0.464,0.341,0.752,0.341h0.428h86.195h0.432
		c0.266,0,0.52-0.105,0.707-0.293s0.293-0.441,0.293-0.707c0-0.084,0.018-0.183,0.037-0.298c0.027-0.16,0.059-0.342,0.059-0.553
		v-7.129c0-0.33-0.043-0.591-0.073-0.781c-0.01-0.058-0.02-0.108-0.022-0.153c0-0.553-0.447-0.987-1-0.987l-0.258-0.003
		L737.92,112.37L737.92,112.37z"/>
	<path style="fill:#283A28;" d="M669.955,184.206c20.797,0,38.184,10.918,46.863,29.565l-7.826,4.234
		c-8.07-15.479-22.906-25.014-39.037-25.014c-15.896,0-30.527,9.127-38.799,24.179l-7.629-3.601
		C632.434,195.114,649.607,184.206,669.955,184.206 M669.955,183.206c-20.592,0-38.284,11.188-47.328,29.93
		c-0.116,0.24-0.131,0.517-0.042,0.769c0.089,0.251,0.274,0.456,0.516,0.57l7.629,3.601c0.138,0.065,0.283,0.096,0.426,0.096
		c0.354,0,0.696-0.188,0.877-0.519c8.142-14.815,22.318-23.66,37.923-23.66c15.66,0,30.279,9.379,38.15,24.476
		c0.124,0.238,0.338,0.416,0.594,0.494c0.096,0.029,0.194,0.044,0.293,0.044c0.165,0,0.328-0.041,0.476-0.12l7.826-4.234
		c0.466-0.252,0.654-0.822,0.431-1.302C708.939,194.475,691.081,183.206,669.955,183.206L669.955,183.206z"/>
	<path style="fill:#283A28;" d="M826.984,200.4v1.93c-0.537,0-1.16,0.197-1.693,0.202V200.4H826.984 M826.984,199.4h-1.693
		c-0.553,0-1,0.447-1,1v2.132c0,0.267,0.106,0.522,0.296,0.71c0.188,0.186,0.44,0.29,0.704,0.29c0.003,0,0.006,0,0.009,0
		c0.344-0.003,0.674-0.061,0.993-0.115c0.26-0.045,0.504-0.087,0.691-0.087c0.553,0,1-0.447,1-1v-1.93
		C827.984,199.848,827.537,199.4,826.984,199.4L826.984,199.4z"/>
	<path style="fill:#283A28;" d="M742.908,170.931l71.988,10.827c1.699,2.544,4.359,8.406,6.471,13.146h-78.459V170.931
		 M742.908,169.931c-0.238,0-0.47,0.085-0.652,0.242c-0.221,0.189-0.348,0.467-0.348,0.758v23.973c0,0.553,0.447,1,1,1h78.459
		c0.339,0,0.654-0.172,0.839-0.455c0.185-0.284,0.212-0.643,0.074-0.952c-2.42-5.433-4.89-10.804-6.552-13.294
		c-0.157-0.234-0.404-0.392-0.684-0.434l-71.988-10.827C743.008,169.935,742.958,169.931,742.908,169.931L742.908,169.931z"/>
	<path style="fill:#283A28;" d="M452.904,221.871c2.828,0,5.123,2.295,5.123,5.123c0,2.822-2.295,5.117-5.123,5.117
		s-5.123-2.295-5.123-5.117C447.781,224.166,450.076,221.871,452.904,221.871 M452.904,220.871c-3.376,0-6.123,2.747-6.123,6.123
		c0,3.373,2.747,6.117,6.123,6.117s6.123-2.744,6.123-6.117C459.027,223.618,456.28,220.871,452.904,220.871L452.904,220.871z"/>
	<path style="fill:#283A28;" d="M551.117,221.127c0.205,0.028,0.389,0.125,0.6,0.129h10.602v11.432h-10.602
		c-0.211,0.005-0.395,0.102-0.596,0.13L551.117,221.127 M551.117,220.127c-0.24,0-0.474,0.087-0.657,0.246
		c-0.218,0.19-0.343,0.465-0.343,0.754l0.004,11.69c0,0.29,0.126,0.565,0.344,0.755c0.184,0.159,0.417,0.245,0.656,0.245
		c0.046,0,0.093-0.003,0.14-0.01c0.134-0.019,0.265-0.054,0.394-0.092c0.037-0.011,0.073-0.024,0.11-0.03l10.554,0.002
		c0.553,0,1-0.447,1-1v-11.432c0-0.553-0.447-1-1-1h-10.602c0.008-0.004-0.028-0.017-0.064-0.027
		c-0.131-0.038-0.262-0.073-0.398-0.092C551.208,220.13,551.163,220.127,551.117,220.127L551.117,220.127z"/>
	<path style="fill:#283A28;" d="M264.412,159.764c15.268,12.026,24.184,30.4,24.184,49.84c0,35.044-28.41,63.452-63.453,63.452
		c-0.004,0-0.014,0-0.018,0c-35.033,0-63.439-28.402-63.439-63.447l0.02-1.685c3.664-2.78,6.246-8.407,7.697-12.301
		c0.418-1.139,1.521-1.801,2.619-1.801c0.651,0,1.302,0.233,1.807,0.74c0.487,0.484,1.128,0.732,1.774,0.732
		c0.48,0,0.964-0.138,1.39-0.416l9.828-6.563c0.511-0.337,1.093-0.502,1.672-0.502c0.781,0,1.558,0.302,2.145,0.887
		c1.398,1.401,1.1,3.788-0.475,4.998c-2.223,1.704-4.941,4.21-5.814,6.851c-2.842,8.518,1.455,12.762,5.041,16.314
		c2.137,2.104,4.023,3.976,4.023,6.348c0,9.06,11.33,40.79,27.193,40.79c16.559,0,15.824-9.425,15.063-19.248
		c-0.49-6.309-1-12.78,3.072-17.011c3.346-3.49,7.648-4.556,11.82-5.603c7.883-1.954,15.373-3.826,15.373-21.591
		c0-12.512-11.787-22.666-22.662-22.666c-15.848,0-20.615,1.479-25.143,2.886l-0.096,0.023c-0.765,0.237-1.544,0.352-2.313,0.352
		c-3.056,0-5.95-1.795-7.073-4.764c-1.455-3.846-0.813-6.419,6.295-7.259c0.752-0.092,1.498-0.24,2.207-0.49l8.922-3.087
		c0.964-0.333,1.967-0.498,2.967-0.498c1.393,0,2.78,0.32,4.051,0.954l2.363,1.182c1.037,0.516,2.162,0.773,3.286,0.773
		s2.249-0.258,3.286-0.773c1.047-0.523,2.166-0.774,3.271-0.774c2.38,0,4.696,1.162,6.097,3.261l2.223,3.342
		c1.457,2.213,3.894,3.449,6.408,3.449c1.064,0,2.143-0.221,3.166-0.684c3.865-1.743,5.578-6.295,3.836-10.154L264.412,159.764
		 M264.412,158.764c-0.217,0-0.434,0.07-0.614,0.211c-0.363,0.282-0.486,0.776-0.299,1.196l2.611,5.857
		c0.735,1.628,0.792,3.441,0.162,5.11c-0.63,1.67-1.871,2.992-3.496,3.726c-0.875,0.395-1.802,0.595-2.755,0.595
		c-2.253,0-4.336-1.121-5.573-2.999l-2.225-3.346c-1.55-2.322-4.14-3.707-6.93-3.707c-1.281,0-2.567,0.305-3.718,0.88
		c-0.878,0.437-1.86,0.668-2.839,0.668s-1.961-0.231-2.841-0.669l-2.361-1.181c-1.39-0.693-2.945-1.06-4.498-1.06
		c-1.123,0-2.231,0.186-3.294,0.553l-8.922,3.087c-0.581,0.205-1.233,0.35-2.001,0.443c-3.89,0.459-6.181,1.461-7.207,3.151
		c-1.086,1.787-0.464,3.969,0.098,5.453c1.225,3.236,4.443,5.41,8.009,5.41c0.875,0,1.743-0.13,2.58-0.388l0.067-0.016
		c0.02-0.005,0.039-0.011,0.059-0.017c4.493-1.396,9.139-2.841,24.846-2.841c10.018,0,21.662,9.464,21.662,21.666
		c0,16.998-6.772,18.677-14.613,20.62l-0.07,0.018c-4.279,1.074-8.704,2.185-12.231,5.863c-4.376,4.546-3.854,11.259-3.35,17.751
		c0.453,5.846,0.879,11.333-2.204,14.664c-2.202,2.379-6.081,3.536-11.859,3.536c-8.627,0-15.396-10.317-18.662-16.467
		c-4.652-8.757-7.531-18.925-7.531-23.323c0-2.806-2.1-4.872-4.322-7.061c-3.49-3.458-7.436-7.367-4.794-15.285
		c0.631-1.908,2.523-4.111,5.475-6.373c1.029-0.791,1.668-1.989,1.753-3.289c0.08-1.228-0.338-2.367-1.179-3.209
		c-0.764-0.762-1.776-1.181-2.853-1.181c-0.792,0-1.561,0.23-2.223,0.667l-9.833,6.566c-0.244,0.16-0.535,0.248-0.834,0.248
		c-0.403,0-0.783-0.157-1.069-0.441c-0.661-0.664-1.554-1.031-2.512-1.031c-1.589,0-3.019,0.987-3.558,2.456
		c-1.483,3.98-3.968,9.272-7.363,11.849c-0.246,0.187-0.392,0.477-0.396,0.785l-0.02,1.685c0,35.548,28.907,64.459,64.439,64.459
		c35.557,0,64.471-28.913,64.471-64.452c0-19.876-8.953-38.328-24.564-50.625C264.85,158.835,264.631,158.764,264.412,158.764
		L264.412,158.764z"/>
	<path style="fill:#283A28;" d="M451.805,120.63c4.775,0,9.628,0.927,14.264,2.885c10.828,4.566,18.408,14,20.094,25.005
		c10.744,2.827,17.039,13.26,14.01,23.314c-2.453,8.161-10.395,13.788-19.469,13.808H457.58l-1.215,0.02l-2.615-0.072
		c-3.588,0-1.273,0.072-4.855,0.072l-2.885-0.02h-18.326c-0.281,0.009-0.562,0.013-0.842,0.013
		c-13.442,0-24.579-9.975-25.012-22.626c-0.385-10.793,7.197-20.419,18.35-23.305C425.954,127.734,438.582,120.63,451.805,120.63
		 M440.148,181.906h26.166c1.844,0,3.404-0.644,4.656-1.892c1.248-1.239,1.877-2.804,1.877-4.657V155.75
		c0-1.844-0.629-3.409-1.877-4.667c-1.252-1.248-2.813-1.872-4.656-1.872v-6.53c0-3.591-1.287-6.683-3.852-9.247
		c-2.553-2.554-5.631-3.841-9.223-3.841c-3.711,0-6.818,1.345-9.328,4.023c-2.506,2.66-3.764,5.896-3.764,9.708v5.887
		c-1.844,0-3.395,0.624-4.648,1.872c-1.258,1.258-1.877,2.823-1.877,4.667v19.607c0,1.854,0.619,3.418,1.877,4.657
		C436.754,181.263,438.305,181.906,440.148,181.906 M451.805,119.63c-13.845,0-26.478,7.538-32.322,19.245
		c-11.4,3.152-19.049,13.036-18.651,24.189c0.452,13.228,11.877,23.59,26.011,23.59c0.29,0,0.581-0.004,0.873-0.013h18.295
		l2.878,0.02c1.825,0,2.147-0.019,2.489-0.038c0.298-0.017,0.606-0.034,2.373-0.034l2.588,0.072l1.258-0.02h23.107
		c9.464-0.021,17.863-5.991,20.427-14.52c1.48-4.916,0.901-10.115-1.633-14.64c-2.605-4.653-7.119-8.181-12.451-9.754
		c-1.935-11.132-9.589-20.496-20.589-25.136C461.802,120.627,456.872,119.63,451.805,119.63L451.805,119.63z M440.148,180.906
		c-1.571,0-2.861-0.523-3.943-1.601c-1.065-1.05-1.582-2.341-1.582-3.948V155.75c0-1.599,0.519-2.894,1.584-3.96
		c1.067-1.062,2.357-1.579,3.941-1.579c0.553,0,1-0.447,1-1v-5.887c0-3.577,1.143-6.528,3.491-9.022
		c2.34-2.496,5.152-3.709,8.601-3.709c3.297,0,6.162,1.193,8.516,3.548c2.361,2.361,3.559,5.234,3.559,8.54v6.53
		c0,0.553,0.447,1,1,1c1.592,0,2.884,0.517,3.95,1.58c1.063,1.072,1.583,2.369,1.583,3.959v19.607c0,1.6-0.518,2.891-1.582,3.947
		c-1.081,1.078-2.373,1.602-3.951,1.602H440.148L440.148,180.906z"/>
	<path style="fill:#283A28;" d="M343.029,221.15c0.207,0.029,0.391,0.125,0.602,0.13h10.6v11.432h-10.6
		c-0.211,0.005-0.395,0.101-0.596,0.13L343.029,221.15 M343.029,220.15c-0.239,0-0.473,0.086-0.656,0.245
		c-0.219,0.19-0.344,0.466-0.344,0.756l0.006,11.691c0,0.29,0.126,0.565,0.346,0.756c0.184,0.158,0.416,0.243,0.654,0.243
		c0.048,0,0.096-0.004,0.145-0.011c0.131-0.019,0.259-0.053,0.386-0.091c0.037-0.011,0.074-0.024,0.112-0.03l10.553,0.002
		c0.553,0,1-0.447,1-1V221.28c0-0.553-0.447-1-1-1h-10.6c0.008-0.004-0.028-0.018-0.065-0.028c-0.129-0.038-0.26-0.072-0.396-0.092
		C343.123,220.153,343.076,220.15,343.029,220.15L343.029,220.15z"/>
	<path style="fill:#283A28;" d="M453.24,160.656c1.406,0,2.578,0.451,3.496,1.383c0.936,0.932,1.4,2.112,1.4,3.524
		c0,1.401-0.465,2.583-1.4,3.505c-0.918,0.931-2.09,1.392-3.496,1.392c-1.422,0-2.598-0.461-3.529-1.392
		c-0.922-0.922-1.373-2.104-1.373-3.505c0-1.412,0.451-2.593,1.373-3.524C450.643,161.107,451.818,160.656,453.24,160.656
		 M453.24,159.656c-1.699,0-3.124,0.563-4.236,1.676c-1.106,1.118-1.666,2.541-1.666,4.231c0,1.689,0.561,3.106,1.666,4.212
		c1.119,1.118,2.544,1.685,4.236,1.685c1.687,0,3.103-0.568,4.208-1.689c1.117-1.101,1.688-2.52,1.688-4.207
		c0-1.688-0.57-3.113-1.694-4.233C456.35,160.222,454.934,159.656,453.24,159.656L453.24,159.656z"/>
	<path style="fill:#283A28;" d="M453.24,136.132c1.854,0,3.404,0.634,4.648,1.882c1.258,1.259,1.877,2.805,1.877,4.667v6.53h-13.068
		v-6.53c0-1.862,0.619-3.408,1.877-4.667C449.836,136.766,451.383,136.132,453.24,136.132 M453.24,135.132
		c-2.106,0-3.913,0.73-5.369,2.171c-1.444,1.445-2.174,3.253-2.174,5.378v6.53c0,0.553,0.447,1,1,1h13.068c0.553,0,1-0.447,1-1
		v-6.53c0-2.125-0.729-3.933-2.17-5.374C457.157,135.864,455.355,135.132,453.24,135.132L453.24,135.132z"/>
	<path style="fill:#283A28;" d="M413.552,105.307c0.224,0,0.448,0.004,0.675,0.012c4.402,0.148,8.215,1.709,11.416,4.69
		c1.744,1.608,3.039,3.457,3.967,5.503c-6.73,4.335-12.344,10.571-15.877,18.417c-3.275,0.907-6.271,2.348-8.975,4.162
		c-2.457-1.454-4.488-3.38-6.049-5.828c-1.926-3.006-2.828-6.304-2.703-9.905c0.158-4.844,2.021-8.944,5.594-12.276
		C405,106.896,408.985,105.307,413.552,105.307 M413.552,104.307L413.552,104.307c-4.813,0-9.063,1.697-12.636,5.045
		c-3.754,3.501-5.743,7.866-5.909,12.974c-0.132,3.783,0.831,7.31,2.86,10.477c1.61,2.527,3.758,4.598,6.381,6.149
		c0.158,0.094,0.334,0.14,0.51,0.14c0.194,0,0.389-0.057,0.558-0.17c2.731-1.834,5.653-3.189,8.684-4.028
		c0.287-0.079,0.523-0.282,0.646-0.554c3.319-7.371,8.682-13.591,15.506-17.986c0.417-0.269,0.574-0.802,0.37-1.254
		c-1.01-2.227-2.423-4.187-4.2-5.825c-3.36-3.13-7.42-4.798-12.061-4.954C414.022,104.311,413.786,104.307,413.552,104.307
		L413.552,104.307z"/>
	<g>
		<path style="fill:#9ACA31;" d="M670.123,248.623c-5.975,0-10.654-4.602-10.654-10.477c0-5.872,4.68-10.472,10.654-10.472
			c5.773,0,10.471,4.697,10.471,10.472C680.594,243.923,675.896,248.623,670.123,248.623z"/>
		<path style="fill:#283A28;" d="M670.123,228.175c5.516,0,9.971,4.46,9.971,9.972c0,5.526-4.455,9.977-9.971,9.977
			c-5.699,0-10.154-4.45-10.154-9.977C659.969,232.635,664.424,228.175,670.123,228.175 M670.123,227.175
			c-6.255,0-11.154,4.819-11.154,10.972c0,6.155,4.899,10.977,11.154,10.977c6.049,0,10.971-4.924,10.971-10.977
			C681.094,232.097,676.172,227.175,670.123,227.175L670.123,227.175z"/>
	</g>
	<g>
		<path style="fill:#9ACA31;" d="M804.018,258.591c-3.961,0-7.184-3.182-7.184-7.092c0-4.073,3.155-7.265,7.184-7.265
			c3.954,0,7.172,3.259,7.172,7.265C811.189,255.343,807.905,258.591,804.018,258.591z"/>
		<path style="fill:#283A28;" d="M804.018,244.734c3.619,0,6.672,2.972,6.672,6.765c0,3.625-3.053,6.592-6.672,6.592
			c-3.713,0-6.684-2.967-6.684-6.592C797.334,247.706,800.305,244.734,804.018,244.734 M804.018,243.734
			c-4.309,0-7.684,3.41-7.684,7.765c0,4.187,3.447,7.592,7.684,7.592c4.23,0,7.672-3.405,7.672-7.592
			C811.689,247.218,808.248,243.734,804.018,243.734L804.018,243.734z"/>
	</g>
	<g>
		<path style="fill:#9ACA31;" d="M225.139,282.63c-40.262,0-73.018-32.757-73.018-73.021c0-40.261,32.756-73.016,73.018-73.016
			c40.264,0,73.021,32.755,73.021,73.016c0,3.729-0.337,7.592-1.028,11.791h7.777c2.49-9.878,11.274-16.746,21.499-16.751
			l7.701,0.005c3.906,0,7.368,2.414,8.758,6.055c0.227-0.063,0.479-0.121,0.757-0.125h10.106v-1.612
			c0-2.381,1.938-4.317,4.318-4.317h12.805c10.22,0,19.004,6.864,21.498,16.741l12.565,0.005c0.283,0,0.517,0.06,0.723,0.111
			c0.062,0.016,0.124,0.032,0.188,0.046c0.064-0.016,0.129-0.033,0.192-0.051c0.23-0.063,0.49-0.135,0.789-0.135h31.3
			c1.623-4.245,4.938-7.559,9.173-9.168v-11.309l0.049-5.568l-24.289,0.023c-0.334,0.011-0.681,0.017-1.028,0.017
			c-17.112,0-30.953-13.398-31.509-30.502c-0.244-7.367,2.186-14.639,6.85-20.535c-2.488-1.87-4.589-4.08-6.248-6.575
			c-3.12-4.683-4.604-9.969-4.41-15.711c0.25-7.455,3.108-13.786,8.494-18.818c5.129-4.8,11.286-7.234,18.303-7.234
			c0.346,0,0.694,0.006,1.044,0.018c6.635,0.226,12.509,2.538,17.457,6.875c2.527,2.21,4.569,4.85,6.075,7.851
			c4.791-1.743,9.795-2.627,14.879-2.627c6.179,0,12.19,1.299,17.87,3.861c13.562,6.122,22.938,18.533,25.135,33.245
			c6.438,1.893,11.785,6.148,15.08,12.012c3.349,5.96,4.174,12.863,2.324,19.44c-3.076,10.982-13.19,18.666-24.596,18.685
			l-30.212,0.354l-0.021,5.192v11.307c4.234,1.609,7.55,4.923,9.173,9.168H499c0.234,0,0.428,0.055,0.6,0.103
			c0.05,0.014,0.101,0.028,0.152,0.041c0.044-0.012,0.088-0.024,0.131-0.037c0.146-0.044,0.328-0.098,0.539-0.102h12.573
			c2.49-9.879,11.274-16.747,21.499-16.751l7.701,0.004c3.907,0,7.368,2.414,8.758,6.055c0.227-0.063,0.479-0.121,0.757-0.125
			h10.108v-1.612c0-2.381,1.937-4.317,4.316-4.317h12.805c10.221,0,19.005,6.864,21.499,16.743l25.896,0.073l-10.01-4.681
			c-0.247-0.116-0.355-0.408-0.244-0.657l1.047-2.343c5.613-13.09,15.398-23.59,27.567-29.587l7.313-56.005h-0.284
			c-2.399,0-6.424-0.877-6.424-6.747v-7.129c0-5.564,3.493-6.732,6.424-6.732h86.195c4.087,0,6.338,2.391,6.338,6.732v7.129
			c0,5.652-3.681,6.675-6.067,6.743l4.852,36.822l74.795,11.385c0.119,0.018,0.228,0.078,0.306,0.17l0.639,0.749
			c2.159,2.597,5.521,9.618,7.703,14.693v-29.959c0-0.276,0.224-0.5,0.5-0.5h6.68c0.276,0,0.5,0.224,0.5,0.5v50.057
			c0,0.276-0.224,0.5-0.5,0.5h-6.68c-0.276,0-0.5-0.224-0.5-0.5v-2.473c-0.229,0.01-0.449,0.031-0.68,0.077l0.087,8.886h7.772
			c0.276,0,0.5,0.224,0.5,0.5v10.399c0,0.276-0.224,0.5-0.5,0.5h-8.504c5.737,5.707,9.004,13.559,9.004,21.739
			c0,16.877-13.686,30.607-30.508,30.607c-16.279,0-29.576-12.62-30.479-28.82h-8.213c-0.245,0-0.453-0.177-0.493-0.419
			c-0.084-0.506-0.105-1.009-0.11-1.502h-52.453c-5.581,18.118-22.689,30.741-41.738,30.741c-24.242,0-43.965-19.722-43.965-43.964
			c0-1.763,0.13-3.589,0.408-5.706l-4.812-0.029c-8.813-0.052-8.813-0.052-8.871-0.061l-12.493,0.011
			c-2.493,9.88-11.28,16.746-21.504,16.746h-12.799c-2.381-0.006-4.316-1.944-4.316-4.321v-1.612h-10.102
			c-0.285-0.004-0.536-0.063-0.761-0.128c-1.383,3.626-4.814,6.035-8.692,6.057c-0.022,0.003-0.046,0.005-0.068,0.005h-7.701
			c-10.221,0-19.005-6.866-21.498-16.746l-12.564-0.005c-0.198-0.005-0.355-0.052-0.482-0.09c-0.032-0.01-0.064-0.021-0.097-0.028
			c-0.059,0.014-0.116,0.029-0.173,0.045c-0.196,0.055-0.418,0.116-0.68,0.116h-31.303c-2.361,6.074-8.261,10.13-14.791,10.13
			c-1.843,0-3.663-0.321-5.411-0.956c-4.317-1.568-7.721-4.9-9.384-9.174h-31.303c-0.281,0-0.522-0.066-0.736-0.125
			c-0.064-0.018-0.128-0.035-0.193-0.051c-0.053,0.014-0.104,0.029-0.157,0.045c-0.178,0.053-0.379,0.113-0.619,0.117
			c-0.005,0-0.01,0-0.015,0c-0.072,0-0.14-0.001-0.211-0.007l-12.525,0.007c-2.493,9.88-11.28,16.746-21.504,16.746h-12.799
			c-2.382-0.006-4.318-1.944-4.318-4.321v-1.613h-10.1c-0.285-0.004-0.535-0.063-0.761-0.127c-1.385,3.626-4.816,6.035-8.692,6.057
			c-0.022,0.003-0.046,0.005-0.068,0.005h-7.701c-10.221,0-19.005-6.866-21.498-16.746l-10.485-0.005
			C284.499,262.536,256.702,282.63,225.139,282.63z M162.186,209.614c0,34.703,28.234,62.941,62.939,62.941
			c34.73,0,62.971-28.24,62.971-62.952c0-18.716-8.127-36.138-22.373-48.128l1.758,3.942c0.896,1.986,0.967,4.207,0.195,6.25
			c-0.771,2.045-2.292,3.666-4.282,4.563c-1.07,0.482-2.204,0.728-3.372,0.728c-2.759,0-5.311-1.373-6.826-3.674l-2.221-3.34
			c-1.27-1.902-3.394-3.038-5.681-3.038c-1.064,0-2.09,0.243-3.047,0.722c-1.088,0.541-2.301,0.826-3.51,0.826
			s-2.422-0.285-3.509-0.826l-2.364-1.182c-1.182-0.59-2.506-0.901-3.827-0.901c-0.956,0-1.899,0.158-2.804,0.471l-8.922,3.087
			c-0.676,0.238-1.433,0.407-2.31,0.514c-3.353,0.396-5.35,1.195-6.106,2.441c-0.575,0.946-0.508,2.225,0.219,4.145
			c1.005,2.656,3.659,4.44,6.605,4.44c0.734,0,1.463-0.11,2.165-0.329c0.01-0.003,0.115-0.029,0.125-0.031
			c4.57-1.422,9.327-2.9,25.262-2.9c10.711,0,23.162,10.119,23.162,23.166c0,18.171-8.008,20.156-15.753,22.076
			c-4.139,1.038-8.352,2.096-11.579,5.463c-3.911,4.063-3.416,10.435-2.938,16.597c0.479,6.182,0.93,11.987-2.598,15.799
			c-2.502,2.703-6.742,4.018-12.961,4.018c-15.891,0-27.693-31.615-27.693-41.29c0-2.178-1.795-3.945-3.874-5.991
			c-3.617-3.584-8.102-8.026-5.165-16.829c0.735-2.223,2.749-4.608,5.984-7.089c0.686-0.527,1.112-1.328,1.169-2.197
			c0.052-0.79-0.212-1.519-0.743-2.051c-0.479-0.478-1.115-0.74-1.791-0.74c-0.498,0-0.98,0.146-1.396,0.419l-9.826,6.563
			c-0.501,0.328-1.076,0.5-1.667,0.5c-0.803,0-1.558-0.312-2.127-0.878c-0.383-0.384-0.898-0.595-1.455-0.595
			c-0.962,0-1.825,0.592-2.148,1.473c-1.528,4.1-4.09,9.536-7.67,12.376L162.186,209.614z M803.502,235.263
			c-8.769,0-15.985,7.109-16.088,15.849v0.604c0,8.958,7.286,16.246,16.242,16.246c8.905,0,16.15-7.288,16.15-16.246
			c0.108-9.037-6.894-16.26-15.94-16.448L803.502,235.263z M670.171,215.524c-6.109,0.012-11.832,2.418-16.111,6.777
			c-4.29,4.368-6.597,10.149-6.497,16.279c0.01,12.273,10.154,22.413,22.615,22.61c12.581,0,22.822-10.243,22.822-22.833
			C693,225.768,682.759,215.524,670.171,215.524L670.171,215.524z M764.74,245.089c1.744-12.816,9.648-23.797,21.217-29.434
			c5.851-2.861,11.86-4.312,17.86-4.312c2.527,0,5.047,0.266,7.495,0.789c1.657-3.71,4.605-6.757,8.172-8.442v-0.015h-71.535
			l-15.438,22.478c-0.093,0.136-0.247,0.217-0.412,0.217h-19.715c1.034,4.085,1.559,8.115,1.559,11.988
			c0,2.309-0.179,4.517-0.545,6.73H764.74z M343.535,232.217c0.027-0.002,0.056-0.004,0.084-0.005h10.111V221.78h-10.1
			c-0.035-0.001-0.068-0.003-0.102-0.006L343.535,232.217z M551.621,232.192c0.027-0.002,0.056-0.004,0.084-0.005h10.113v-10.432
			h-10.102c-0.034-0.001-0.067-0.003-0.1-0.006L551.621,232.192z M452.904,222.371c-2.549,0-4.623,2.074-4.623,4.623
			c0,2.546,2.074,4.617,4.623,4.617s4.623-2.071,4.623-4.617C457.527,224.445,455.453,222.371,452.904,222.371z M669.955,192.492
			c16.065,0,31.058,9.502,39.243,24.834l6.967-3.77c-8.603-18.076-25.842-28.851-46.21-28.851c-19.836,0-36.903,10.69-45.756,28.628
			l6.747,3.185C639.391,201.464,653.94,192.492,669.955,192.492z M818.68,214.556c0.284,0.123,0.554,0.268,0.814,0.422v-1.694
			C819.181,213.687,818.91,214.131,818.68,214.556z M825.791,201.98c0.08-0.013,0.163-0.027,0.247-0.042
			c0.146-0.025,0.296-0.051,0.446-0.07V200.9h-0.693V201.98z M820.597,194.403c-2.231-4.994-4.467-9.82-5.995-12.185l-71.193-10.707
			v22.892H820.597z M736.312,191.014l-6.572-62.409h-3.29v5.715c1.73,1.286,2.756,3.302,2.756,5.442v22.488
			c0,3.662-2.979,6.641-6.641,6.641c-3.667,0-6.65-2.979-6.65-6.641v-22.488c0-3.496,2.716-6.371,6.15-6.627v-4.53h-61.603
			l-5.399,51.639c4.76-1.229,9.549-1.838,14.607-1.86v-30.867c0-0.276,0.224-0.5,0.5-0.5c12.026,0,12.3,6.789,12.588,13.976
			c0.172,4.289,0.351,8.725,2.883,12.316c4.072,5.873,9.827,6.65,14.904,7.337c6.055,0.818,11.298,1.527,11.487,10.369H736.312z
			 M456.379,185.161l1.193-0.02h23.131c8.806-0.019,16.615-5.551,18.99-13.451c1.362-4.523,0.828-9.309-1.505-13.476
			c-2.51-4.482-6.939-7.84-12.153-9.212c-0.193-0.051-0.337-0.211-0.367-0.408c-1.669-10.893-9.068-20.096-19.794-24.619
			c-4.47-1.889-9.204-2.846-14.069-2.846c-13.435,0-25.671,7.384-31.175,18.811c-0.063,0.133-0.183,0.23-0.325,0.268
			c-10.961,2.836-18.353,12.213-17.975,22.803c0.424,12.418,11.191,22.145,24.512,22.144c0.273,0,0.551-0.004,0.826-0.013h18.342
			l2.888,0.02c1.773,0,2.089-0.018,2.394-0.035c0.319-0.019,0.65-0.037,2.459-0.037
			C453.755,185.089,456.379,185.161,456.379,185.161z M413.552,105.807c-4.419,0-8.325,1.562-11.61,4.64
			c-3.454,3.222-5.282,7.234-5.436,11.928c-0.121,3.477,0.762,6.713,2.624,9.619c1.43,2.243,3.317,4.094,5.615,5.506
			c2.722-1.79,5.621-3.13,8.628-3.988c3.386-7.411,8.77-13.686,15.599-18.181c-0.911-1.883-2.144-3.548-3.668-4.954
			c-3.094-2.881-6.826-4.414-11.094-4.558C413.989,105.811,413.77,105.807,413.552,105.807z M737.901,121.776
			c0.003-0.018,0.006-0.035,0.009-0.053c0.018-0.103,0.037-0.2,0.037-0.298v-7.129c0-0.163-0.018-0.305-0.036-0.427l-86.293,0.001
			c-0.017,0.115-0.019,0.271-0.019,0.426v7.129c0,0.168,0.004,0.277,0.012,0.351H737.901z"/>
		<path style="fill:#283A28;" d="M413.492,96.49c0.34,0,0.683,0.006,1.027,0.018c6.533,0.222,12.252,2.464,17.145,6.751
			c2.689,2.353,4.701,5.075,6.154,8.1c4.805-1.804,9.93-2.752,15.129-2.752c5.913,0,11.923,1.228,17.664,3.817
			c13.424,6.06,22.82,18.581,24.893,33.181c13.334,3.74,21.121,17.592,17.371,30.925c-3.029,10.816-12.877,18.302-24.115,18.32
			l-30.709,0.36l-0.023,5.685v11.657c4.354,1.546,7.768,4.965,9.324,9.319H499c0.27,0,0.494,0.11,0.754,0.153
			c0.23-0.038,0.438-0.144,0.678-0.148h12.957c2.291-9.809,11.033-16.747,21.105-16.751l7.701,0.004c3.961,0,7.279,2.593,8.441,6.16
			c0.359-0.086,0.695-0.226,1.08-0.23h10.602v-2.112c0-2.107,1.709-3.817,3.816-3.817h12.805c10.068,0,18.811,6.938,21.105,16.742
			l28.553,0.081l-12.061-5.641l1.047-2.343c5.727-13.353,15.488-23.579,27.572-29.46l7.422-56.836h-0.854
			c-2.742,0-5.924-1.152-5.924-6.247v-7.129c0-5.171,3.182-6.232,5.924-6.232h86.195c2.66,0,5.838,1.062,5.838,6.232v7.129
			c0,5.095-3.178,6.247-5.838,6.247h-0.299l4.975,37.756l75.166,11.441l0.639,0.749c2.555,3.072,6.779,12.415,8.584,16.856v-32.446
			h6.68v50.057h-6.68v-2.981c-0.537,0-1.064,0.01-1.684,0.197l0.096,9.756c0.1,0.01,0.105,0.015,0.207,0.019h8.061v10.399h-9.752
			c6.252,5.719,9.752,13.771,9.752,22.239c0,16.55-13.463,30.107-30.008,30.107c-16.213,0-29.359-12.905-30.002-28.82h-8.689
			c-0.105-0.639-0.105-1.287-0.105-1.921h-53.322c-5.314,17.808-21.855,30.741-41.367,30.741c-23.963,0-43.465-19.497-43.465-43.464
			c0-2.132,0.197-4.183,0.48-6.203c-6.543-0.039-14.148-0.082-14.182-0.087l-12.959,0.005c-2.295,9.809-11.037,16.746-21.111,16.746
			h-12.799c-2.107-0.005-3.816-1.709-3.816-3.821v-2.112h-10.602c-0.385-0.005-0.715-0.149-1.076-0.235
			c-1.161,3.569-4.478,6.164-8.428,6.164c-0.004,0-0.008,0-0.012,0l-0.006,0.005h-7.701c-10.066,0-18.811-6.938-21.105-16.746
			l-12.957-0.005c-0.207-0.005-0.385-0.101-0.582-0.129c-0.287,0.053-0.547,0.172-0.85,0.172h-31.648
			c-2.271,6.249-8.165,10.13-14.445,10.13c-1.74,0-3.511-0.298-5.24-0.926c-4.283-1.556-7.648-4.921-9.209-9.204h-31.648
			c-0.332,0-0.619-0.129-0.932-0.187c-0.264,0.048-0.504,0.168-0.783,0.173c-0.057,0-0.115,0-0.178-0.005l-12.957,0.005
			c-2.295,9.809-11.039,16.746-21.111,16.746h-12.799c-2.107-0.005-3.818-1.709-3.818-3.821v-2.113h-10.6
			c-0.385-0.005-0.717-0.148-1.076-0.235c-1.161,3.564-4.472,6.165-8.429,6.165c-0.003,0-0.007,0-0.011,0l-0.006,0.005h-7.701
			c-10.068,0-18.811-6.938-21.105-16.746l-11.24-0.005c-9.467,29.037-36.729,50.037-68.924,50.037
			c-40.047,0-72.518-32.47-72.518-72.521c0-40.046,32.471-72.516,72.518-72.516c40.051,0,72.521,32.47,72.521,72.516
			c0,4.196-0.434,8.287-1.119,12.291h8.762c2.291-9.809,11.033-16.746,21.105-16.751l7.701,0.005c3.957,0,7.279,2.593,8.441,6.16
			c0.359-0.087,0.695-0.226,1.08-0.23h10.6v-2.112c0-2.108,1.711-3.817,3.818-3.817h12.805c10.066,0,18.811,6.938,21.105,16.741
			l12.957,0.005c0.007,0,0.013,0,0.02,0c0.314,0,0.598,0.116,0.898,0.168c0.326-0.066,0.629-0.196,0.975-0.196h31.648
			c1.557-4.354,4.971-7.773,9.324-9.319v-11.657l0.053-6.068l-24.793,0.023c-0.345,0.011-0.686,0.017-1.028,0.017
			c-16.666,0-30.463-13.232-31.009-30.019c-0.256-7.725,2.434-14.945,7.066-20.611c-2.535-1.834-4.748-4.052-6.549-6.76
			c-3.078-4.619-4.518-9.761-4.326-15.417c0.246-7.346,3.021-13.505,8.336-18.47C400.591,98.854,406.582,96.49,413.492,96.49
			 M404.758,138.091c2.703-1.814,5.699-3.255,8.975-4.162c3.533-7.846,9.146-14.082,15.877-18.417
			c-0.928-2.046-2.223-3.895-3.967-5.503c-3.201-2.981-7.014-4.542-11.416-4.69c-0.227-0.008-0.451-0.012-0.675-0.012
			c-4.566,0-8.552,1.589-11.952,4.774c-3.572,3.332-5.436,7.433-5.594,12.276c-0.125,3.602,0.777,6.899,2.703,9.905
			C400.27,134.711,402.301,136.637,404.758,138.091 M651.297,122.276c0.016,0,0.221,0,0.428,0h86.195c0.115,0,0.23,0,0.432,0
			c0-0.322,0.096-0.586,0.096-0.851v-7.129c0-0.423-0.096-0.716-0.096-0.922c-0.201,0-0.316-0.005-0.432-0.005h-86.195
			c-0.207,0-0.412,0.005-0.428,0.005c-0.182,0.206-0.197,0.499-0.197,0.922v7.129C651.1,121.849,651.115,122.069,651.297,122.276
			 M426.842,185.654c0.279,0,0.561-0.004,0.842-0.013h18.326l2.885,0.02c3.582,0,1.268-0.072,4.855-0.072l2.615,0.072l1.215-0.02
			h23.123c9.074-0.02,17.016-5.646,19.469-13.808c3.029-10.055-3.266-20.487-14.01-23.314c-1.686-11.005-9.266-20.438-20.094-25.005
			c-4.637-1.958-9.487-2.885-14.264-2.885c-13.222,0.001-25.852,7.105-31.625,19.094c-11.152,2.886-18.734,12.512-18.35,23.305
			C402.263,175.681,413.398,185.654,426.842,185.654 M722.564,168.391c-3.395,0-6.15-2.756-6.15-6.141v-22.488
			c0-3.395,2.756-6.146,6.15-6.146v-5.512h-62.553l-5.521,52.808c5.084-1.378,10.188-2.03,15.475-2.03h0.205v-31.366
			c18.451,0,8.066,16.16,15.063,26.08c9.121,13.155,26.305,1.479,26.305,17.918h25.33l-6.678-63.409h-4.24v6.472
			c1.695,1.162,2.756,3.068,2.756,5.186v22.488C728.705,165.635,725.955,168.391,722.564,168.391 M260.021,176.459
			c-2.515,0-4.951-1.236-6.408-3.449l-2.223-3.342c-1.4-2.099-3.717-3.261-6.097-3.261c-1.104,0-2.224,0.251-3.271,0.774
			c-1.037,0.516-2.162,0.773-3.286,0.773s-2.249-0.258-3.286-0.773L233.088,166c-1.271-0.635-2.658-0.955-4.051-0.955
			c-1,0-2.003,0.166-2.967,0.499l-8.922,3.087c-0.709,0.25-1.455,0.398-2.207,0.49c-7.107,0.84-7.75,3.413-6.295,7.259
			c1.123,2.969,4.018,4.764,7.073,4.764c0.77,0,1.549-0.114,2.313-0.352l0.096-0.023c4.527-1.407,9.295-2.886,25.143-2.886
			c10.875,0,22.662,10.154,22.662,22.666c0,17.765-7.49,19.637-15.373,21.591c-4.172,1.047-8.475,2.112-11.82,5.603
			c-4.072,4.23-3.563,10.702-3.072,17.011c0.762,9.823,1.496,19.248-15.063,19.248c-15.863,0-27.193-31.73-27.193-40.79
			c0-2.372-1.887-4.244-4.023-6.348c-3.586-3.553-7.883-7.797-5.041-16.314c0.873-2.641,3.592-5.146,5.814-6.851
			c1.574-1.21,1.873-3.597,0.475-4.998c-0.587-0.585-1.363-0.887-2.145-0.887c-0.579,0-1.161,0.165-1.672,0.502l-9.828,6.563
			c-0.426,0.278-0.909,0.416-1.39,0.416c-0.646,0-1.287-0.248-1.774-0.732c-0.505-0.507-1.155-0.74-1.807-0.74
			c-1.099,0-2.201,0.662-2.619,1.801c-1.451,3.894-4.033,9.521-7.697,12.301l-0.02,1.685c0,35.045,28.406,63.447,63.439,63.447
			c0.004,0,0.014,0,0.018,0c35.043,0,63.453-28.408,63.453-63.452c0-19.439-8.916-37.813-24.184-49.84l2.611,5.857
			c1.742,3.859,0.029,8.411-3.836,10.154C262.164,176.238,261.086,176.459,260.021,176.459 M742.908,194.903h78.459
			c-2.111-4.739-4.771-10.602-6.471-13.146l-71.988-10.827V194.903 M631.156,217.171c8.271-15.052,22.902-24.179,38.799-24.179
			c16.131,0,30.967,9.535,39.037,25.014l7.826-4.234c-8.68-18.647-26.066-29.565-46.863-29.565
			c-20.348,0-37.521,10.908-46.428,29.364L631.156,217.171 M825.291,202.532c0.533-0.005,1.156-0.202,1.693-0.202v-1.93h-1.693
			V202.532 M712.805,245.589h52.375c1.59-12.752,9.223-23.747,20.996-29.484c5.728-2.8,11.715-4.261,17.642-4.261
			c2.617,0,5.225,0.285,7.79,0.866c1.594-3.816,4.566-6.995,8.377-8.699v-0.835h-72.299L732.1,225.87h-20.361
			c1.07,4.028,1.705,8.258,1.705,12.488C713.443,240.902,713.227,243.25,712.805,245.589 M819.994,215.884v-3.826
			c-0.85,0.667-1.488,1.714-2.021,2.771C818.713,215.049,819.352,215.466,819.994,215.884 M670.17,261.691
			c12.742,0,23.33-10.399,23.33-23.333c0-12.925-10.588-23.334-23.33-23.334c-12.93,0.024-23.318,10.63-23.107,23.564
			C647.072,251.307,657.453,261.49,670.17,261.691 M551.121,232.817c0.201-0.028,0.385-0.125,0.596-0.13h10.602v-11.432h-10.602
			c-0.211-0.004-0.395-0.101-0.6-0.129L551.121,232.817 M343.035,232.842c0.201-0.029,0.385-0.125,0.596-0.13h10.6V221.28h-10.6
			c-0.211-0.005-0.395-0.101-0.602-0.13L343.035,232.842 M452.904,232.111c2.828,0,5.123-2.295,5.123-5.117
			c0-2.828-2.295-5.123-5.123-5.123s-5.123,2.295-5.123,5.123C447.781,229.816,450.076,232.111,452.904,232.111 M803.656,268.461
			c9.223,0,16.65-7.609,16.65-16.746c0.111-9.31-7.211-16.756-16.43-16.948c-0.125-0.003-0.25-0.004-0.375-0.004
			c-9.054,0-16.482,7.335-16.588,16.343c0,0.206,0,0.412,0,0.609C786.914,260.852,794.434,268.461,803.656,268.461 M413.492,95.49
			c-7.146,0-13.42,2.479-18.645,7.369c-5.486,5.126-8.397,11.574-8.651,19.167c-0.198,5.849,1.313,11.233,4.493,16.005
			c1.6,2.406,3.602,4.552,5.96,6.389c-4.533,5.916-6.888,13.142-6.645,20.461c0.271,8.365,3.739,16.175,9.764,21.99
			c6.009,5.801,13.909,8.995,22.244,8.995c0.354,0,0.705-0.006,1.061-0.018l23.752-0.021l-0.044,5.059v10.977
			c-4.107,1.66-7.341,4.892-9.013,9.009h-30.96c-0.366,0-0.674,0.084-0.922,0.152c-0.021,0.006-0.043,0.012-0.065,0.018
			c-0.02-0.005-0.039-0.01-0.059-0.015c-0.224-0.057-0.5-0.127-0.827-0.127l-12.197-0.005c-2.677-9.897-11.564-16.741-21.885-16.741
			h-12.805c-2.657,0-4.818,2.161-4.818,4.817v1.112h-9.6c-0.164,0.002-0.318,0.019-0.461,0.043
			c-1.559-3.608-5.091-5.973-9.061-5.973l-7.7-0.005c-10.326,0.005-19.214,6.853-21.886,16.751h-6.805
			c0.633-4.003,0.941-7.708,0.941-11.291c0-40.536-32.981-73.516-73.521-73.516c-40.538,0-73.518,32.979-73.518,73.516
			c0,40.54,32.979,73.521,73.518,73.521c31.658,0,59.555-20.078,69.646-50.037l9.739,0.005c2.677,9.899,11.564,16.746,21.885,16.746
			h7.701c0.035,0,0.069-0.002,0.104-0.006c3.93-0.038,7.412-2.394,8.959-5.972c0.139,0.024,0.288,0.041,0.446,0.043h9.612v1.113
			c0,2.652,2.16,4.815,4.816,4.821h12.801c10.324,0,19.214-6.847,21.891-16.746l12.145-0.005c0.073,0.004,0.144,0.005,0.211,0.005
			c0.326-0.006,0.583-0.082,0.771-0.138c0.007-0.002,0.014-0.004,0.021-0.006c0.019,0.005,0.037,0.01,0.056,0.015
			c0.232,0.063,0.521,0.143,0.868,0.143h30.965c1.758,4.255,5.205,7.565,9.551,9.144c1.803,0.655,3.681,0.986,5.582,0.986
			c6.621,0,12.613-4.042,15.13-10.13H499c0.329,0,0.598-0.074,0.813-0.134c0.01-0.003,0.021-0.006,0.03-0.009
			c0.138,0.041,0.333,0.094,0.564,0.1l12.201,0.005c2.677,9.899,11.564,16.746,21.885,16.746h7.701c0.035,0,0.069-0.002,0.104-0.006
			c3.932-0.038,7.414-2.393,8.959-5.971c0.139,0.024,0.288,0.041,0.446,0.043h9.614v1.112c0,2.652,2.159,4.815,4.814,4.821h12.801
			c10.324,0,19.214-6.847,21.891-16.746l12.18-0.005v-0.003c0.389,0.009,1.945,0.018,9.009,0.06l4.034,0.023
			c-0.232,1.904-0.342,3.583-0.342,5.21c0,24.518,19.947,44.464,44.465,44.464c9.693,0,18.895-3.075,26.609-8.895
			c7.275-5.486,12.756-13.223,15.496-21.847h51.598c0.015,0.354,0.045,0.716,0.105,1.084c0.079,0.482,0.497,0.837,0.986,0.837h7.744
			c0.543,7.625,3.862,14.73,9.412,20.097c5.817,5.626,13.465,8.724,21.535,8.724c17.098,0,31.008-13.955,31.008-31.107
			c0-7.913-3.008-15.522-8.324-21.239h7.324c0.553,0,1-0.447,1-1v-10.399c0-0.553-0.447-1-1-1h-7.277l-0.051-5.229
			c0.174,0.149,0.4,0.239,0.648,0.239h6.68c0.553,0,1-0.447,1-1v-50.057c0-0.553-0.447-1-1-1h-6.68c-0.553,0-1,0.447-1,1v27.595
			c-1.979-4.412-4.813-10.235-6.815-12.645l-0.646-0.758c-0.155-0.184-0.372-0.304-0.61-0.34l-74.423-11.329l-4.732-35.914
			c3.827-0.323,6.001-2.912,6.001-7.213v-7.129c0-4.664-2.429-7.232-6.838-7.232h-86.195c-4.465,0-6.924,2.568-6.924,7.232v7.129
			c0,4.505,2.415,7.131,6.639,7.243l-7.205,55.18c-12.165,6.069-21.942,16.606-27.569,29.726l-1.041,2.329
			c-0.223,0.498-0.005,1.083,0.489,1.314l7.958,3.722l-23.247-0.066c-2.676-9.898-11.564-16.744-21.885-16.744h-12.805
			c-2.656,0-4.816,2.161-4.816,4.817v1.112h-9.602c-0.165,0.002-0.318,0.019-0.461,0.043c-1.559-3.607-5.092-5.973-9.061-5.973
			l-7.7-0.004c-10.326,0.004-19.214,6.852-21.886,16.751h-12.178c-0.294,0.006-0.519,0.071-0.684,0.12
			c-0.005-0.002-0.01-0.003-0.014-0.004c-0.183-0.052-0.432-0.121-0.734-0.121h-30.96c-1.672-4.117-4.905-7.349-9.013-9.009v-10.968
			l0.02-4.696l29.725-0.349c11.618-0.02,21.931-7.854,25.066-19.051c1.886-6.704,1.044-13.743-2.37-19.819
			c-3.307-5.886-8.641-10.182-15.069-12.154c-2.309-14.742-11.755-27.164-25.376-33.313c-5.744-2.592-11.825-3.906-18.075-3.906
			c-4.995,0-9.914,0.843-14.634,2.508c-1.515-2.896-3.526-5.452-5.991-7.608c-5.037-4.414-11.016-6.769-17.769-6.997
			C414.197,95.496,413.844,95.49,413.492,95.49L413.492,95.49z M404.74,136.906c-2.112-1.351-3.855-3.091-5.188-5.181
			c-1.807-2.821-2.663-5.961-2.547-9.333c0.149-4.558,1.925-8.453,5.276-11.58c3.191-2.99,6.982-4.506,11.271-4.506
			c0.213,0,0.426,0.004,0.642,0.011c4.144,0.14,7.767,1.628,10.768,4.423c1.376,1.269,2.505,2.751,3.366,4.418
			c-6.669,4.486-11.944,10.664-15.313,17.936C410.137,133.939,407.358,135.219,404.74,136.906L404.74,136.906z M652.1,114.37h85.348
			v6.906H652.1V114.37L652.1,114.37z M426.842,184.654c-13.05,0-23.598-9.514-24.012-21.66c-0.37-10.354,6.868-19.525,17.601-22.303
			c0.284-0.073,0.522-0.269,0.65-0.534c5.42-11.254,17.479-18.526,30.724-18.527c4.799,0,9.467,0.944,13.875,2.806
			c10.564,4.456,17.852,13.516,19.494,24.235c0.061,0.394,0.349,0.714,0.733,0.815c5.159,1.357,9.365,4.544,11.845,8.973
			c2.267,4.047,2.785,8.694,1.463,13.087c-2.313,7.692-9.926,13.077-18.514,13.096H457.58l-1.23,0.02l-2.572-0.072
			c-0.018,0-0.036,0-0.054,0c-1.804,0-2.122,0.019-2.461,0.038c-0.298,0.017-0.606,0.034-2.368,0.034l-2.878-0.02h-18.333
			C427.383,184.65,427.11,184.654,426.842,184.654L426.842,184.654z M726.949,129.104h2.34l6.467,61.409h-23.24
			c-0.389-8.807-5.988-9.564-11.904-10.364c-4.975-0.673-10.613-1.436-14.557-7.124c-2.453-3.477-2.628-7.837-2.797-12.054
			c-0.286-7.107-0.581-14.456-13.088-14.456c-0.553,0-1,0.447-1,1v30.371c-4.672,0.057-9.121,0.614-13.535,1.697l5.277-50.479
			h60.652v3.581c-3.471,0.488-6.15,3.476-6.15,7.076v22.488c0,3.938,3.208,7.141,7.15,7.141c3.938,0,7.141-3.203,7.141-7.141
			v-22.488c0-2.215-1.021-4.304-2.756-5.688V129.104L726.949,129.104z M260.021,177.459c1.239,0,2.443-0.26,3.578-0.772
			c2.111-0.952,3.726-2.672,4.544-4.842c0.818-2.168,0.744-4.524-0.209-6.635l-0.832-1.867
			c13.076,11.825,20.493,28.453,20.493,46.261c0,34.437-28.017,62.452-62.453,62.452c-34.447,0-62.457-28.014-62.457-62.447
			l0.014-1.196c3.573-2.949,6.117-8.354,7.64-12.439c0.293-0.796,1.056-1.15,1.683-1.15c0.298,0,0.731,0.077,1.098,0.445
			c0.667,0.664,1.548,1.027,2.483,1.027c0.688,0,1.358-0.2,1.938-0.579l9.836-6.568c0.329-0.218,0.717-0.334,1.115-0.334
			c0.544,0,1.055,0.211,1.439,0.595c0.427,0.428,0.64,1.02,0.597,1.664c-0.047,0.715-0.411,1.4-0.975,1.833
			c-3.316,2.543-5.388,5.009-6.154,7.33c-3.034,9.094,1.572,13.658,5.274,17.326c2.013,1.982,3.739,3.682,3.739,5.649
			c0,4.74,2.904,15.111,7.765,24.262c4.248,7.996,11.24,17.528,20.429,17.528c6.366,0,10.726-1.367,13.327-4.178
			c3.677-3.973,3.196-10.159,2.732-16.142c-0.473-6.088-0.959-12.346,2.796-16.246c3.13-3.266,7.271-4.305,11.276-5.31l0.066-0.017
			c7.929-1.965,16.13-3.998,16.13-22.561c0-6.154-2.686-12.103-7.563-16.749c-4.613-4.396-10.481-6.917-16.099-6.917
			c-15.977,0-20.783,1.483-25.41,2.922l-0.065,0.016c-0.02,0.005-0.04,0.011-0.06,0.017c-0.654,0.203-1.332,0.307-2.017,0.307
			c-2.739,0-5.206-1.654-6.138-4.118c-0.658-1.737-0.74-2.916-0.26-3.707c0.663-1.091,2.593-1.833,5.736-2.204
			c0.917-0.112,1.708-0.288,2.422-0.54l8.917-3.085c0.852-0.295,1.739-0.444,2.64-0.444c1.245,0,2.491,0.294,3.604,0.85l2.362,1.182
			c1.157,0.575,2.447,0.879,3.733,0.879s2.576-0.304,3.731-0.878c0.889-0.445,1.839-0.67,2.825-0.67c2.12,0,4.088,1.053,5.265,2.815
			l2.222,3.341C254.387,176.002,257.094,177.459,260.021,177.459L260.021,177.459z M743.908,193.903v-21.811l70.394,10.587
			c1.584,2.531,3.986,7.789,5.524,11.224H743.908L743.908,193.903z M624.875,213.101c8.829-17.487,25.608-27.895,45.08-27.895
			c20.009,0,36.968,10.498,45.553,28.138l-6.107,3.304c-8.323-15.234-23.351-24.655-39.445-24.655
			c-16.054,0-30.647,8.906-39.215,23.877L624.875,213.101L624.875,213.101z M748.212,204.176h69.349
			c-2.789,1.75-5.09,4.338-6.536,7.387c-2.358-0.477-4.778-0.719-7.208-0.719c-6.075,0-12.158,1.468-18.08,4.362
			c-11.587,5.646-19.547,16.586-21.43,29.383h-50.323c0.31-2.047,0.46-4.097,0.46-6.23c0-3.717-0.478-7.576-1.42-11.488H732.1
			c0.329,0,0.638-0.162,0.824-0.434L748.212,204.176L748.212,204.176z M670.18,260.691c-12.187-0.196-22.107-10.11-22.117-22.104
			c-0.098-6.01,2.158-11.664,6.354-15.937c4.186-4.262,9.781-6.615,15.756-6.627c12.311,0,22.328,10.019,22.328,22.334
			C692.5,250.67,682.488,260.687,670.18,260.691L670.18,260.691z M552.121,231.688l-0.004-9.432h9.201v9.432H552.121
			L552.121,231.688z M344.034,231.712l-0.004-9.432h9.2v9.432H344.034L344.034,231.712z M452.904,231.111
			c-2.273,0-4.123-1.847-4.123-4.117c0-2.273,1.85-4.123,4.123-4.123s4.123,1.85,4.123,4.123
			C457.027,229.265,455.178,231.111,452.904,231.111L452.904,231.111z M803.656,267.461c-8.681,0-15.742-7.063-15.742-15.746v-0.609
			c0.1-8.455,7.092-15.343,15.588-15.343c0.117,0,0.234,0.001,0.353,0.004c8.771,0.183,15.557,7.183,15.452,15.937
			C819.307,260.397,812.286,267.461,803.656,267.461L803.656,267.461z"/>
	</g>
	<g>
		<path style="fill:#9ACA31;" d="M440.148,182.406c-1.96,0-3.643-0.686-5.001-2.037c-1.343-1.323-2.024-3.01-2.024-5.012V155.75
			c0-1.988,0.681-3.678,2.023-5.021c1.23-1.226,2.743-1.897,4.502-2.004v-5.401c0-3.922,1.313-7.304,3.899-10.051
			c2.599-2.773,5.86-4.181,9.692-4.181c3.71,0,6.932,1.342,9.576,3.987c2.653,2.653,3.998,5.883,3.998,9.601v6.045
			c1.766,0.105,3.28,0.778,4.509,2.003c1.344,1.354,2.024,3.043,2.024,5.021v19.607c0,1.992-0.682,3.678-2.024,5.012
			c-1.355,1.352-3.041,2.037-5.009,2.037H440.148z M453.24,161.156c-1.305,0-2.344,0.404-3.176,1.236
			c-0.825,0.834-1.227,1.871-1.227,3.171c0,1.277,0.413,2.338,1.227,3.151c0.839,0.838,1.878,1.245,3.176,1.245
			c1.288,0,2.315-0.406,3.14-1.243c0.836-0.823,1.257-1.882,1.257-3.153c0-1.293-0.41-2.33-1.253-3.17
			C455.563,161.56,454.535,161.156,453.24,161.156z M459.266,148.711v-6.03c0-1.737-0.566-3.148-1.73-4.313
			c-1.148-1.151-2.593-1.735-4.295-1.735c-1.722,0-3.133,0.568-4.314,1.737c-1.162,1.163-1.729,2.574-1.729,4.312v6.03H459.266z"/>
		<path style="fill:#283A28;" d="M453.24,129.593c3.592,0,6.67,1.287,9.223,3.841c2.564,2.564,3.852,5.656,3.852,9.247v6.53
			c1.844,0,3.404,0.624,4.656,1.872c1.248,1.258,1.877,2.823,1.877,4.667v19.607c0,1.854-0.629,3.418-1.877,4.657
			c-1.252,1.248-2.813,1.892-4.656,1.892h-26.166c-1.844,0-3.395-0.644-4.648-1.892c-1.258-1.239-1.877-2.804-1.877-4.657V155.75
			c0-1.844,0.619-3.409,1.877-4.667c1.254-1.248,2.805-1.872,4.648-1.872v-5.887c0-3.813,1.258-7.048,3.764-9.708
			C446.422,130.938,449.529,129.593,453.24,129.593 M446.697,149.211h13.068v-6.53c0-1.862-0.619-3.408-1.877-4.667
			c-1.244-1.248-2.795-1.882-4.648-1.882c-1.857,0-3.404,0.634-4.666,1.882c-1.258,1.259-1.877,2.805-1.877,4.667V149.211
			 M453.24,170.46c1.406,0,2.578-0.461,3.496-1.392c0.936-0.922,1.4-2.104,1.4-3.505c0-1.412-0.465-2.593-1.4-3.524
			c-0.918-0.932-2.09-1.383-3.496-1.383c-1.422,0-2.598,0.451-3.529,1.383c-0.922,0.932-1.373,2.112-1.373,3.524
			c0,1.401,0.451,2.583,1.373,3.505C450.643,169.999,451.818,170.46,453.24,170.46 M453.24,128.593c-3.976,0-7.359,1.46-10.058,4.34
			c-2.677,2.841-4.034,6.338-4.034,10.392v4.943c-1.684,0.197-3.145,0.903-4.354,2.106c-1.441,1.441-2.172,3.25-2.172,5.376v19.607
			c0,2.141,0.731,3.947,2.175,5.369c1.452,1.445,3.253,2.18,5.351,2.18h26.166c2.104,0,3.909-0.734,5.362-2.184
			c1.44-1.43,2.171-3.235,2.171-5.365V155.75c0-2.115-0.729-3.922-2.167-5.371c-1.212-1.208-2.676-1.915-4.366-2.111v-5.587
			c0-3.855-1.395-7.204-4.145-9.954C460.428,129.983,457.087,128.593,453.24,128.593L453.24,128.593z M447.697,148.211v-5.53
			c0-1.598,0.519-2.894,1.584-3.96c1.08-1.068,2.376-1.589,3.959-1.589c1.586,0,2.875,0.52,3.94,1.588
			c1.066,1.067,1.585,2.363,1.585,3.961v5.53H447.697L447.697,148.211z M453.24,169.46c-1.159,0-2.082-0.359-2.822-1.099
			c-0.727-0.727-1.08-1.642-1.08-2.798c0-1.161,0.354-2.084,1.084-2.821c0.729-0.729,1.652-1.086,2.818-1.086
			c1.154,0,2.064,0.354,2.784,1.085c0.751,0.748,1.112,1.669,1.112,2.822c0,1.148-0.36,2.062-1.103,2.793
			C455.299,169.103,454.388,169.46,453.24,169.46L453.24,169.46z"/>
	</g>
	<g>
		<path style="fill:#9ACA31;" d="M410.243,92.452c-0.276-0.01-0.492-0.241-0.483-0.517l0.592-17.63
			c0.005-0.133,0.062-0.258,0.158-0.349c0.093-0.087,0.215-0.135,0.342-0.135c0.006,0,8.831,0.298,8.831,0.298
			c0.276,0.01,0.492,0.241,0.483,0.517l-0.59,17.63c-0.005,0.133-0.062,0.258-0.158,0.349c-0.093,0.087-0.215,0.135-0.342,0.135
			C419.07,92.75,410.243,92.452,410.243,92.452z"/>
		<path style="fill:#283A28;" d="M410.852,74.322l8.814,0.298l-0.59,17.63l-8.816-0.298L410.852,74.322 M410.852,73.322
			c-0.253,0-0.497,0.096-0.683,0.27c-0.194,0.181-0.308,0.432-0.316,0.697l-0.592,17.63c-0.019,0.552,0.413,1.014,0.965,1.032
			l8.816,0.298c0.012,0.001,0.022,0.001,0.034,0.001c0.253,0,0.497-0.096,0.683-0.27c0.194-0.182,0.308-0.432,0.316-0.697
			l0.59-17.63c0.019-0.552-0.413-1.014-0.965-1.032l-8.814-0.298C410.874,73.322,410.863,73.322,410.852,73.322L410.852,73.322z"/>
	</g>
	<g>
		<path style="fill:#9ACA31;" d="M389.345,103.884c-0.133-0.005-0.258-0.062-0.349-0.158l-12.031-12.867
			c-0.188-0.201-0.179-0.515,0.021-0.704l6.381-6.073c0.093-0.089,0.217-0.138,0.345-0.138c0.005,0,0.011,0,0.016,0
			c0.134,0.005,0.26,0.063,0.352,0.16l12.025,12.978c0.187,0.202,0.176,0.517-0.025,0.705l-6.375,5.963
			c-0.093,0.087-0.215,0.135-0.342,0.135C389.355,103.884,389.351,103.884,389.345,103.884z"/>
		<path style="fill:#283A28;" d="M383.711,84.443l12.025,12.978l-6.375,5.963L377.33,90.517L383.711,84.443 M383.711,83.443
			c-0.256,0-0.503,0.099-0.689,0.275l-6.381,6.073c-0.397,0.379-0.416,1.007-0.041,1.407l12.031,12.867
			c0.182,0.194,0.432,0.308,0.697,0.316c0.011,0.001,0.022,0.001,0.033,0.001c0.253,0,0.498-0.096,0.684-0.27l6.375-5.963
			c0.401-0.376,0.424-1.007,0.05-1.41l-12.025-12.978c-0.182-0.196-0.435-0.312-0.702-0.32
			C383.731,83.443,383.722,83.443,383.711,83.443L383.711,83.443z"/>
	</g>
	<g>
		<path style="fill:#9ACA31;" d="M364.989,126.229c-0.133-0.005-0.258-0.062-0.349-0.158c-0.091-0.098-0.139-0.227-0.135-0.358
			l0.297-8.815c0.01-0.271,0.231-0.483,0.5-0.483c0.005,0,17.646,0.591,17.646,0.591c0.133,0.005,0.258,0.062,0.349,0.158
			c0.091,0.098,0.139,0.227,0.135,0.358l-0.297,8.814c-0.01,0.271-0.231,0.483-0.5,0.483
			C382.63,126.818,364.989,126.229,364.989,126.229z"/>
		<path style="fill:#283A28;" d="M365.303,116.913l17.629,0.591l-0.297,8.814l-17.629-0.59L365.303,116.913 M365.302,115.913
			c-0.536,0-0.98,0.426-0.998,0.967l-0.297,8.815c-0.01,0.265,0.087,0.522,0.269,0.716c0.182,0.194,0.432,0.308,0.697,0.316
			l17.629,0.59c0.011,0.001,0.022,0.001,0.034,0.001c0.536,0,0.98-0.426,0.998-0.967l0.297-8.814
			c0.01-0.265-0.087-0.522-0.269-0.716c-0.182-0.194-0.432-0.308-0.697-0.316l-17.629-0.591
			C365.325,115.913,365.313,115.913,365.302,115.913L365.302,115.913z"/>
	</g>
	<g>
		<path style="fill:#9ACA31;" d="M381.183,159.75c-0.133-0.005-0.258-0.062-0.349-0.158l-6.068-6.491
			c-0.091-0.098-0.14-0.228-0.135-0.36c0.006-0.134,0.063-0.26,0.162-0.35l12.973-11.917c0.096-0.088,0.217-0.132,0.338-0.132
			c0.134,0,0.267,0.053,0.365,0.158l5.963,6.371c0.091,0.097,0.139,0.226,0.135,0.358c-0.005,0.133-0.062,0.258-0.158,0.349
			l-12.867,12.037c-0.093,0.087-0.215,0.135-0.342,0.135C381.193,159.75,381.188,159.75,381.183,159.75z"/>
		<path style="fill:#283A28;" d="M388.104,140.842l5.963,6.371l-12.867,12.037l-6.068-6.491L388.104,140.842 M388.104,139.842
			c-0.242,0-0.484,0.087-0.677,0.264l-12.973,11.917c-0.196,0.181-0.313,0.432-0.322,0.698c-0.011,0.267,0.086,0.526,0.269,0.721
			l6.068,6.491c0.182,0.194,0.432,0.308,0.697,0.316c0.011,0.001,0.022,0.001,0.033,0.001c0.253,0,0.498-0.096,0.684-0.27
			l12.867-12.037c0.193-0.182,0.307-0.433,0.315-0.697c0.009-0.266-0.088-0.522-0.269-0.717l-5.963-6.371
			C388.637,139.948,388.37,139.842,388.104,139.842L388.104,139.842z"/>
	</g>
	<g>
		<path style="fill:#9ACA31;" d="M439.138,105.56c-0.133-0.005-0.258-0.062-0.349-0.159l-5.959-6.381
			c-0.188-0.2-0.178-0.514,0.021-0.703l12.762-12.147c0.093-0.089,0.217-0.138,0.345-0.138c0.005,0,0.01,0,0.015,0
			c0.133,0.004,0.26,0.062,0.351,0.158l6.068,6.491c0.188,0.202,0.178,0.519-0.023,0.707l-12.871,12.037
			c-0.093,0.087-0.215,0.135-0.342,0.135C439.148,105.56,439.143,105.56,439.138,105.56z"/>
		<path style="fill:#283A28;" d="M445.957,86.531l6.068,6.491l-12.871,12.037l-5.959-6.381L445.957,86.531 M445.957,85.531
			c-0.256,0-0.503,0.099-0.689,0.275l-12.762,12.147c-0.397,0.379-0.416,1.006-0.041,1.407l5.959,6.381
			c0.181,0.193,0.432,0.308,0.696,0.316c0.012,0.001,0.022,0.001,0.034,0.001c0.253,0,0.497-0.096,0.683-0.27l12.871-12.037
			c0.403-0.377,0.425-1.01,0.048-1.413l-6.068-6.491c-0.182-0.195-0.435-0.31-0.701-0.317
			C445.977,85.531,445.967,85.531,445.957,85.531L445.957,85.531z"/>
	</g>
</g>
</svg>
