<?xml version="1.0" encoding="utf-8"?>
<!-- Generator: Adobe Illustrator 16.0.2, SVG Export Plug-In . SVG Version: 6.00 Build 0)  -->
<!DOCTYPE svg PUBLIC "-//W3C//DTD SVG 1.1//EN" "http://www.w3.org/Graphics/SVG/1.1/DTD/svg11.dtd">
<svg version="1.1" id="Layer_1" xmlns="http://www.w3.org/2000/svg" xmlns:xlink="http://www.w3.org/1999/xlink" x="0px" y="0px"
	 width="512px" height="512px" viewBox="0 0 512 512" enable-background="new 0 0 512 512" xml:space="preserve">
<g display="none">
	<path display="inline" d="M255.999,2c34.291,0,67.556,6.715,98.868,19.96c30.246,12.793,57.41,31.107,80.738,54.435
		c23.327,23.328,41.642,50.492,54.435,80.738C503.284,188.446,510,221.71,510,256.001c0,34.29-6.716,67.554-19.96,98.867
		c-12.793,30.246-31.107,57.409-54.435,80.737c-23.328,23.327-50.492,41.642-80.738,54.435C323.555,503.284,290.29,510,255.999,510
		c-34.291,0-67.554-6.716-98.867-19.96c-30.246-12.793-57.41-31.107-80.737-54.435c-23.327-23.328-41.642-50.491-54.435-80.737
		C8.715,323.555,2,290.291,2,256.001c0-34.291,6.715-67.555,19.959-98.868c12.793-30.246,31.108-57.41,54.435-80.738
		c23.328-23.328,50.491-41.642,80.737-54.435C188.445,8.715,221.708,2,255.999,2 M255.999,0C114.615,0,0,114.615,0,256.001
		C0,397.385,114.615,512,255.999,512C397.386,512,512,397.385,512,256.001C512,114.615,397.386,0,255.999,0L255.999,0z"/>
</g>
<g>
	<path fill="#ADFF2F" d="M54.704,178.091c22.045,10.011,51.764,15.942,84.048,15.942c32.285,0,62.003-5.931,84.048-15.942
		c21.122-9.609,39.079-24.96,39.079-45.622S243.922,96.457,222.8,86.848c-22.045-10.01-51.764-15.942-84.048-15.942
		c-32.284,0-62.003,5.932-84.048,15.942c-21.122,9.609-39.078,24.96-39.078,45.622S33.582,168.482,54.704,178.091z"/>
</g>
<g>
	<path fill="#ADFF2F" d="M260,176.819c-10,8.856-19.662,15.41-29.642,19.938c-25.291,11.495-57.566,17.797-92.076,17.797
		s-67.833-6.302-93.124-17.797C35.179,192.25,23,185.675,14,176.819v17.214c0,20.662,18.769,36.012,39.891,45.61
		c22.046,10.001,52.171,15.952,84.455,15.952c32.285,0,61.267-5.931,83.312-15.952C242.78,230.045,260,214.695,260,194.033V176.819z
		"/>
</g>
<g>
	<path fill="#ADFF2F" d="M138.782,276.117c-34.51,0-68.083-6.293-93.374-17.797C35.429,253.813,23,247.238,14,238.382v17.214
		c0,20.662,18.769,36.013,39.891,45.611c22.046,10.021,52.171,15.952,84.455,15.952c32.285,0,61.267-5.931,83.312-15.952
		C242.78,291.608,260,276.258,260,255.596v-17.214c-10,8.856-19.662,15.409-29.642,19.938
		C205.067,269.824,173.292,276.117,138.782,276.117z"/>
</g>
<g>
	<path fill="#ADFF2F" d="M490.64,156.5H461.5V88.176c0-9.489-6.799-17.27-15-17.27c-8.203,0-15,7.781-15,17.27V156.5h-44V88.176
		c0-9.489-6.799-17.27-15-17.27c-8.203,0-15,7.781-15,17.27V156.5h-27.212c-5.209,0-10.788,3.601-10.788,9.579v12.667
		c0,5.978,5.579,12.753,10.788,12.753h7.423H336.5v24.822c0,46.4,16,69.078,55,74.771v2.563c0,1.186,0,2.373,0,3.605v53.518V420.9
		c-42,0.096-64.523,0.521-106.928,0.949c-36.623,0.381-71.947,0.76-126.947,0.807l0.495-44.685
		c24.629-1.877,46.39-7.242,63.897-15.202c21.122-9.598,38.483-24.948,38.483-45.61v-17.214c-10,8.856-19.912,15.409-29.892,19.938
		c-25.291,11.503-57.691,17.797-92.201,17.797s-67.646-6.294-92.937-17.797c-9.979-4.508-21.971-11.082-30.971-19.938v17.214
		c0,20.662,18.519,36.013,39.641,45.61c18.629,8.469,43.028,14,69.533,15.516l0.038,64.439c0,11.055,7.752,20.068,17.35,20.068
		c49.13,0,97.156-0.475,145.222-0.994c40.395-0.428,60.314-0.809,124.456-0.809c9.555,0,16.762-8.965,16.762-20.068v-90.143v-53.518
		c0-1.377,0-2.705,0-4.033v-2.563c40-4.506,55-32.023,55-76.953V191.5h2.357h5.782c5.167,0,7.86-6.728,7.86-12.753v-12.667
		C498.5,160.101,495.849,156.5,490.64,156.5z M449.5,229.375l-79-0.125V201.5h79V229.375z"/>
</g>
</svg>
