<?xml version="1.0" encoding="utf-8"?>
<!-- Generator: Adobe Illustrator 16.0.2, SVG Export Plug-In . SVG Version: 6.00 Build 0)  -->
<!DOCTYPE svg PUBLIC "-//W3C//DTD SVG 1.1//EN" "http://www.w3.org/Graphics/SVG/1.1/DTD/svg11.dtd">
<svg version="1.1" xmlns="http://www.w3.org/2000/svg" xmlns:xlink="http://www.w3.org/1999/xlink" x="0px" y="0px"
	 width="3648.739px" height="461px" viewBox="0 0 3648.739 461" enable-background="new 0 0 3648.739 461" xml:space="preserve">
<g id="Layer_1">
</g>
<g id="Layer_2">
</g>
<g id="Layer_3">
	<path fill="#D00000" d="M185.48,0h-0.188H48.511C21.735,0,0,23.609,0,52.683v355.636C0,437.394,21.735,461,48.511,461h136.781
		h1.089H230.5V0H185.48z"/>
	<path fill="#5800B3" d="M412.49,0H230.5v461h181.99c26.773,0,48.51-23.606,48.51-52.682V52.683C461,23.609,439.264,0,412.49,0z"/>
	<g>
		<path fill="#FFFFFF" d="M229.931,170.274c74.059,0,134.059-31.147,134.059-69.591c0-38.395-60-69.55-134.059-69.55
			c-74.001,0-134.043,31.155-134.043,69.55C95.888,139.127,155.93,170.274,229.931,170.274z"/>
		<path fill="#FFFFFF" d="M334.713,170.647c10.49-5.467,20.709-12.407,29.276-20.78v69.287c-15.81,1.284-30.647,8.416-41.871,20.117
			l-13.401,13.91c-8.908,9.272-13.62,22.081-12.84,35.176c-12.645-0.808-25.019,4.049-33.954,13.368l-13.393,13.891
			c-16.898,17.546-23.486,43.135-17.254,67.095l-16.978,17.731c-0.374,0.396-0.733,0.787-1.135,1.206
			c-66.129-4.329-117.276-33.588-117.276-69.061V149.867c8.568,8.373,18.761,15.313,29.281,20.78
			c27.972,14.521,65.042,22.8,104.762,22.8C269.662,193.447,306.771,185.169,334.713,170.647z"/>
		<path fill="#FFFFFF" d="M435.438,236.464c4.344-4.518,4.344-11.898,0.008-16.426c-4.391-4.537-11.455-4.537-15.808-0.018
			l-26.5,27.501c-0.302,0.392-0.535,0.811-0.8,1.221c-17.54-10.811-39.93-7.989-54.428,6.971l-13.385,13.928
			c-8.532,8.854-8.532,23.237,0,32.148l32.249,33.381c8.542,8.871,22.4,8.871,30.968,0l13.395-13.961
			c14.408-14.982,17.189-38.258,6.688-56.496c0.419-0.229,0.802-0.511,1.184-0.793L435.438,236.464z"/>
		<path fill="#FFFFFF" d="M302.414,318.084c-8.533-8.863-22.39-8.863-30.941,0l0,0l-13.394,13.929
			c-14.427,15.033-17.207,38.287-6.688,56.527c-0.419,0.216-0.851,0.509-1.236,0.791l-26.376,27.474
			c-4.312,4.631-4.172,11.975,0.252,16.428c4.349,4.326,11.203,4.326,15.539,0l26.475-27.503c0.268-0.39,0.57-0.799,0.776-1.222
			c17.548,10.831,39.981,7.99,54.427-6.968l13.443-13.929c8.551-8.844,8.559-23.223,0.017-32.149c0-0.008,0-0.026-0.017-0.026
			L302.414,318.084z"/>
	</g>
	<g>
		<path fill="#00E400" d="M818.768,290.471c-3.11,36.678-15.266,65.283-36.467,85.824c-21.202,20.541-49.4,30.813-84.596,30.813
			c-24.595,0-46.257-6.492-64.984-19.479c-18.73-12.986-33.181-31.439-43.357-55.367c-10.177-23.924-15.478-51.707-15.901-83.346
			v-32.109c0-32.424,5.158-60.994,15.478-85.707c10.315-24.711,25.124-43.758,44.418-57.139
			c19.294-13.377,41.589-20.068,66.892-20.068c34.063,0,61.485,10.271,82.264,30.813c20.777,20.541,32.862,49.623,36.255,87.24
			h-53.429c-2.544-24.709-9.011-42.535-19.399-53.479c-10.389-10.938-25.621-16.408-45.69-16.408
			c-23.322,0-41.237,9.492-53.747,28.477c-12.509,18.984-18.905,46.834-19.188,83.541v30.486c0,37.18,5.97,65.539,17.916,85.076
			c11.942,19.537,29.434,29.303,52.475,29.303c21.06,0,36.892-5.271,47.492-15.818c10.601-10.545,17.313-28.098,20.142-52.652
			H818.768z"/>
		<path fill="#00E400" d="M1113.051,239.473c0,33.686-5.231,63.238-15.689,88.656c-10.462,25.424-25.409,44.941-44.843,58.555
			c-19.436,13.617-41.804,20.424-67.104,20.424c-25.019,0-47.316-6.807-66.892-20.424c-19.579-13.613-34.702-33.014-45.372-58.199
			c-10.674-25.182-16.081-54.223-16.22-87.123V222c0-33.527,5.334-63.117,16.008-88.775c10.67-25.654,25.724-45.293,45.159-58.908
			c19.434-13.613,41.731-20.424,66.893-20.424c25.157,0,47.455,6.729,66.892,20.188c19.433,13.457,34.453,32.818,45.054,58.082
			c10.602,25.264,15.972,54.658,16.114,88.186V239.473z M1059.409,221.527c0-38.09-6.466-67.289-19.399-87.596
			c-12.933-20.305-31.272-30.457-55.019-30.457c-23.184,0-41.311,10.115-54.383,30.34c-13.076,20.229-19.755,48.838-20.036,85.824
			v19.834c0,37.775,6.605,66.977,19.824,87.596c13.215,20.621,31.554,30.93,55.019,30.93c23.746,0,42.013-10.072,54.807-30.223
			c12.791-20.146,19.188-49.582,19.188-88.303V221.527z"/>
		<path fill="#00E400" d="M1411.36,402.385h-53.641l-137.601-243.896v243.896h-53.641V58.615h53.641l138.024,244.842V58.615h53.217
			V402.385z"/>
		<path fill="#00E400" d="M1719.636,402.385h-53.641l-137.601-243.896v243.896h-53.641V58.615h53.641l138.024,244.842V58.615h53.217
			V402.385z"/>
		<path fill="#00E400" d="M1963.457,248.916H1836.67v105.775h148.201v47.693h-201.842V58.615h200.357v48.166H1836.67v94.914h126.787
			V248.916z"/>
		<path fill="#00E400" d="M2264.101,290.471c-3.11,36.678-15.266,65.283-36.467,85.824c-21.202,20.541-49.4,30.813-84.596,30.813
			c-24.595,0-46.257-6.492-64.984-19.479c-18.73-12.986-33.181-31.439-43.357-55.367c-10.177-23.924-15.478-51.707-15.901-83.346
			v-32.109c0-32.424,5.158-60.994,15.478-85.707c10.315-24.711,25.124-43.758,44.418-57.139
			c19.294-13.377,41.589-20.068,66.892-20.068c34.063,0,61.485,10.271,82.264,30.813c20.777,20.541,32.862,49.623,36.255,87.24
			h-53.429c-2.544-24.709-9.011-42.535-19.399-53.479c-10.389-10.938-25.621-16.408-45.69-16.408
			c-23.322,0-41.237,9.492-53.747,28.477c-12.509,18.984-18.905,46.834-19.188,83.541v30.486c0,37.18,5.97,65.539,17.916,85.076
			c11.942,19.537,29.434,29.303,52.475,29.303c21.06,0,36.892-5.271,47.492-15.818c10.601-10.545,17.313-28.098,20.142-52.652
			H2264.101z"/>
		<path fill="#00E400" d="M2528.912,106.781h-96.257v295.604h-53.217V106.781h-95.408V58.615h244.882V106.781z"/>
		<path fill="#00E400" d="M2809.837,239.473c0,33.686-5.231,63.238-15.689,88.656c-10.462,25.424-25.409,44.941-44.843,58.555
			c-19.436,13.617-41.804,20.424-67.104,20.424c-25.019,0-47.316-6.807-66.892-20.424c-19.579-13.613-34.702-33.014-45.372-58.199
			c-10.674-25.182-16.081-54.223-16.22-87.123V222c0-33.527,5.334-63.117,16.008-88.775c10.67-25.654,25.724-45.293,45.159-58.908
			c19.434-13.613,41.731-20.424,66.893-20.424c25.157,0,47.455,6.729,66.892,20.188c19.433,13.457,34.453,32.818,45.054,58.082
			c10.602,25.264,15.972,54.658,16.114,88.186V239.473z M2756.195,221.527c0-38.09-6.466-67.289-19.399-87.596
			c-12.933-20.305-31.272-30.457-55.019-30.457c-23.184,0-41.311,10.115-54.383,30.34c-13.076,20.229-19.755,48.838-20.036,85.824
			v19.834c0,37.775,6.605,66.977,19.824,87.596c13.215,20.621,31.554,30.93,55.019,30.93c23.746,0,42.013-10.072,54.807-30.223
			c12.791-20.146,19.188-49.582,19.188-88.303V221.527z"/>
		<path fill="#00E400" d="M2976.695,270.166h-59.789v132.219h-53.641V58.615h108.554c35.619,0,63.108,8.902,82.476,26.701
			c19.363,17.805,29.046,43.563,29.046,77.273c0,23.002-4.982,42.26-14.947,57.775c-9.965,15.518-23.852,27.451-41.661,35.801
			l69.33,143.154v3.064h-57.457L2976.695,270.166z M2916.906,222h55.125c18.091,0,32.227-5.076,42.403-15.229
			c10.178-10.152,15.266-24.043,15.266-41.674c0-18.416-4.701-32.658-14.099-42.734c-9.402-10.07-23.429-15.266-42.086-15.582
			h-56.609V222z"/>
		<path fill="#00E400" d="M3260.589,58.615h53.429V299.68c0,32.898-9.223,59.025-27.669,78.387
			c-18.445,19.361-42.794,29.041-73.04,29.041c-32.227,0-57.106-9.049-74.631-27.152c-17.528-18.1-26.29-43.285-26.29-75.555h53.429
			c0,18.262,4.062,31.994,12.191,41.201c8.126,9.209,19.893,13.813,35.301,13.813c14.417,0,25.899-5.313,34.453-15.938
			c8.55-10.625,12.827-25.301,12.827-44.033V58.615z"/>
		<path fill="#00E400" d="M3536.639,313.846c0-15.111-4.771-26.758-14.312-34.943c-9.541-8.184-26.751-16.447-51.627-24.791
			c-24.879-8.342-44.666-17.627-59.365-27.861c-28.129-19.674-42.191-45.332-42.191-76.971c0-27.701,10.141-50.527,30.425-68.471
			c20.28-17.943,46.607-26.916,78.977-26.916c21.483,0,40.635,4.408,57.457,13.223c16.819,8.816,30.034,21.367,39.647,37.658
			c9.61,16.291,14.418,34.354,14.418,54.186h-53.429c0-17.943-5.056-31.992-15.16-42.145
			c-10.107-10.152-24.561-15.229-43.357-15.229c-17.528,0-31.134,4.172-40.813,12.514c-9.684,8.346-14.523,19.992-14.523,34.943
			c0,12.596,5.228,23.102,15.689,31.521c10.458,8.422,27.701,16.607,51.732,24.555c24.027,7.949,43.321,17,57.881,27.152
			c14.557,10.152,25.23,21.803,32.016,34.943c6.784,13.145,10.177,28.531,10.177,46.158c0,28.65-9.859,51.434-29.577,68.354
			c-19.718,16.922-46.469,25.381-80.249,25.381c-22.335,0-42.864-4.604-61.592-13.813c-18.73-9.207-33.286-21.918-43.676-38.131
			c-10.389-16.211-15.583-35.1-15.583-56.666h53.641c0,19.52,5.794,34.631,17.386,45.332c11.588,10.707,28.198,16.057,49.824,16.057
			c18.658,0,32.685-4.209,42.086-12.633C3531.938,338.836,3536.639,327.699,3536.639,313.846z"/>
	</g>
</g>
</svg>
